<svg xmlns="http://www.w3.org/2000/svg" xmlns:xlink="http://www.w3.org/1999/xlink" contentStyleType="text/css" data-diagram-type="CLASS" height="1240.8px" preserveAspectRatio="none" style="width:3224px;height:1240px;background:#FFFFFF;" version="1.1" viewBox="0 0 3224 1240" width="3224px" zoomAndPan="magnify"><defs/><g><!--cluster Core--><g class="cluster" data-entity="Core" data-source-line="3" data-uid="ent0002" id="cluster_Core"><path d="M1213.584,42.368 L1239.9012,42.368 A3,3 0 0 1 1241.9012,44.368 L1247.5012,62.0649 L2475.984,62.0649 A2,2 0 0 1 2477.984,64.0649 L2477.984,733.568 A2,2 0 0 1 2475.984,735.568 L1213.584,735.568 A2,2 0 0 1 1211.584,733.568 L1211.584,44.368 A2,2 0 0 1 1213.584,42.368" fill="none" style="stroke:#000000;stroke-width:1.2;"/><line style="stroke:#000000;stroke-width:1.2;" x1="1211.584" x2="1247.5012" y1="62.0649" y2="62.0649"/><text fill="#000000" font-family="sans-serif" font-size="11.2" font-weight="bold" lengthAdjust="spacing" textLength="25.5172" x="1214.784" y="56.0539">Core</text></g><!--cluster App--><g class="cluster" data-entity="App" data-source-line="79" data-uid="ent0011" id="cluster_App"><path d="M2932.784,101.968 L2955.3551,101.968 A3,3 0 0 1 2957.3551,103.968 L2962.9551,121.6649 L3216.784,121.6649 A2,2 0 0 1 3218.784,123.6649 L3218.784,586.368 A2,2 0 0 1 3216.784,588.368 L2932.784,588.368 A2,2 0 0 1 2930.784,586.368 L2930.784,103.968 A2,2 0 0 1 2932.784,101.968" fill="none" style="stroke:#000000;stroke-width:1.2;"/><line style="stroke:#000000;stroke-width:1.2;" x1="2930.784" x2="2962.9551" y1="121.6649" y2="121.6649"/><text fill="#000000" font-family="sans-serif" font-size="11.2" font-weight="bold" lengthAdjust="spacing" textLength="21.7711" x="2933.984" y="115.6539">App</text></g><!--cluster Modules--><g class="cluster" data-entity="Modules" data-source-line="98" data-uid="ent0016" id="cluster_Modules"><path d="M31.184,417.568 L77.4074,417.568 A3,3 0 0 1 79.4074,419.568 L85.0074,437.2649 L1190.384,437.2649 A2,2 0 0 1 1192.384,439.2649 L1192.384,1233.968 A2,2 0 0 1 1190.384,1235.968 L31.184,1235.968 A2,2 0 0 1 29.184,1233.968 L29.184,419.568 A2,2 0 0 1 31.184,417.568" fill="none" style="stroke:#000000;stroke-width:1.2;"/><line style="stroke:#000000;stroke-width:1.2;" x1="29.184" x2="85.0074" y1="437.2649" y2="437.2649"/><text fill="#000000" font-family="sans-serif" font-size="11.2" font-weight="bold" lengthAdjust="spacing" textLength="45.4234" x="32.384" y="431.2539">Modules</text></g><!--cluster MetalCalc--><g class="cluster" data-entity="MetalCalc" data-source-line="97" data-uid="ent0014" id="cluster_MetalCalc"><path d="M621.584,453.568 L674.6707,453.568 A3,3 0 0 1 676.6707,455.568 L682.2707,473.2649 L1171.184,473.2649 A2,2 0 0 1 1173.184,475.2649 L1173.184,1214.768 A2,2 0 0 1 1171.184,1216.768 L621.584,1216.768 A2,2 0 0 1 619.584,1214.768 L619.584,455.568 A2,2 0 0 1 621.584,453.568" fill="none" style="stroke:#000000;stroke-width:1.2;"/><line style="stroke:#000000;stroke-width:1.2;" x1="619.584" x2="682.2707" y1="473.2649" y2="473.2649"/><text fill="#000000" font-family="sans-serif" font-size="11.2" font-weight="bold" lengthAdjust="spacing" textLength="52.2867" x="622.784" y="467.2539">MetalCalc</text></g><!--cluster About--><g class="cluster" data-entity="About" data-source-line="158" data-uid="ent0026" id="cluster_About"><path d="M50.384,468.368 L83.5262,468.368 A3,3 0 0 1 85.5262,470.368 L91.1262,488.0649 L598.384,488.0649 A2,2 0 0 1 600.384,490.0649 L600.384,748.368 A2,2 0 0 1 598.384,750.368 L50.384,750.368 A2,2 0 0 1 48.384,748.368 L48.384,470.368 A2,2 0 0 1 50.384,468.368" fill="none" style="stroke:#000000;stroke-width:1.2;"/><line style="stroke:#000000;stroke-width:1.2;" x1="48.384" x2="91.1262" y1="488.0649" y2="488.0649"/><text fill="#000000" font-family="sans-serif" font-size="11.2" font-weight="bold" lengthAdjust="spacing" textLength="32.3422" x="51.584" y="482.0539">About</text></g><!--cluster UI--><g class="cluster" data-entity="UI" data-source-line="178" data-uid="ent0031" id="cluster_UI"><path d="M2499.184,131.968 L2511.184,131.968 A3,3 0 0 1 2513.184,133.968 L2518.784,151.6649 L2909.584,151.6649 A2,2 0 0 1 2911.584,153.6649 L2911.584,286.768 A2,2 0 0 1 2909.584,288.768 L2499.184,288.768 A2,2 0 0 1 2497.184,286.768 L2497.184,133.968 A2,2 0 0 1 2499.184,131.968" fill="none" style="stroke:#000000;stroke-width:1.2;"/><line style="stroke:#000000;stroke-width:1.2;" x1="2497.184" x2="2518.784" y1="151.6649" y2="151.6649"/><text fill="#000000" font-family="sans-serif" font-size="11.2" font-weight="bold" lengthAdjust="spacing" textLength="11.2" x="2500.384" y="145.6539">UI</text></g><!--class Command--><g class="entity" data-entity="Command" data-source-line="4" data-uid="ent0003" id="entity_Command"><rect fill="#F1F1F1" height="112.8844" rx="2" ry="2" style="stroke:#181818;stroke-width:0.4;" width="243.9523" x="1575.184" y="170.768"/><ellipse cx="1667.9285" cy="183.568" fill="#A9DCDF" rx="8.8" ry="8.8" style="stroke:#181818;stroke-width:0.8;"/><path d="M1669.6785,184.9805 L1666.366,184.9805 L1666.0285,185.8055 L1666.366,185.8055 Q1666.8535,185.8055 1667.066,185.993 Q1667.2785,186.1805 1667.2785,186.493 Q1667.2785,186.793 1667.066,186.9805 Q1666.8535,187.168 1666.366,187.168 L1664.5285,187.168 Q1664.041,187.168 1663.841,186.9805 Q1663.6285,186.793 1663.6285,186.4805 Q1663.6285,186.1805 1663.8535,185.993 Q1664.066,185.793 1664.566,185.8055 L1666.7035,180.4805 L1665.816,180.4805 Q1665.3285,180.4805 1665.116,180.293 Q1664.9035,180.1055 1664.9035,179.793 Q1664.9035,179.493 1665.116,179.3055 Q1665.3285,179.118 1665.816,179.118 L1668.7535,179.118 L1671.466,185.8055 Q1671.941,185.8055 1672.091,185.918 Q1672.4035,186.1305 1672.4035,186.493 Q1672.4035,186.793 1672.191,186.9805 Q1671.991,187.168 1671.5035,187.168 L1669.666,187.168 Q1669.1785,187.168 1668.966,186.9805 Q1668.7535,186.793 1668.7535,186.4805 Q1668.7535,186.1805 1668.966,185.993 Q1669.1785,185.8055 1669.666,185.8055 L1670.0035,185.8055 L1669.6785,184.9805 Z M1669.1035,183.618 L1668.016,180.918 L1666.916,183.618 L1669.1035,183.618 Z " fill="#000000"/><text fill="#000000" font-family="sans-serif" font-size="11.2" font-style="italic" lengthAdjust="spacing" textLength="51.6633" x="1684.3285" y="188.2055">Command</text><line style="stroke:#181818;stroke-width:0.4;" x1="1575.984" x2="1818.3363" y1="196.368" y2="196.368"/><text fill="#000000" font-family="sans-serif" font-size="11.2" lengthAdjust="spacing" textLength="53.2219" x="1579.984" y="211.6539">+name: str</text><text fill="#000000" font-family="sans-serif" font-size="11.2" lengthAdjust="spacing" textLength="79.368" x="1579.984" y="226.5508">+description: str</text><line style="stroke:#181818;stroke-width:0.4;" x1="1575.984" x2="1818.3363" y1="232.5618" y2="232.5618"/><text fill="#000000" font-family="sans-serif" font-size="11.2" lengthAdjust="spacing" textLength="180.857" x="1579.984" y="247.8477">+execute(context: AppContext): void</text><text fill="#000000" font-family="sans-serif" font-size="11.2" font-style="italic" lengthAdjust="spacing" textLength="184.5977" x="1579.984" y="262.7446">+_execute(context: AppContext): any</text><text fill="#000000" font-family="sans-serif" font-size="11.2" lengthAdjust="spacing" text-decoration="underline" textLength="234.3523" x="1579.984" y="277.6414">+get_params(service: Service): List[Parameter]</text></g><!--class Service--><g class="entity" data-entity="Service" data-source-line="12" data-uid="ent0004" id="entity_Service"><rect fill="#F1F1F1" height="112.8844" rx="2" ry="2" style="stroke:#181818;stroke-width:0.4;" width="322.3961" x="1224.784" y="170.768"/><ellipse cx="1363.909" cy="183.568" fill="#A9DCDF" rx="8.8" ry="8.8" style="stroke:#181818;stroke-width:0.8;"/><path d="M1365.659,184.9805 L1362.3465,184.9805 L1362.009,185.8055 L1362.3465,185.8055 Q1362.834,185.8055 1363.0465,185.993 Q1363.259,186.1805 1363.259,186.493 Q1363.259,186.793 1363.0465,186.9805 Q1362.834,187.168 1362.3465,187.168 L1360.509,187.168 Q1360.0215,187.168 1359.8215,186.9805 Q1359.609,186.793 1359.609,186.4805 Q1359.609,186.1805 1359.834,185.993 Q1360.0465,185.793 1360.5465,185.8055 L1362.684,180.4805 L1361.7965,180.4805 Q1361.309,180.4805 1361.0965,180.293 Q1360.884,180.1055 1360.884,179.793 Q1360.884,179.493 1361.0965,179.3055 Q1361.309,179.118 1361.7965,179.118 L1364.734,179.118 L1367.4465,185.8055 Q1367.9215,185.8055 1368.0715,185.918 Q1368.384,186.1305 1368.384,186.493 Q1368.384,186.793 1368.1715,186.9805 Q1367.9715,187.168 1367.484,187.168 L1365.6465,187.168 Q1365.159,187.168 1364.9465,186.9805 Q1364.734,186.793 1364.734,186.4805 Q1364.734,186.1805 1364.9465,185.993 Q1365.159,185.8055 1365.6465,185.8055 L1365.984,185.8055 L1365.659,184.9805 Z M1365.084,183.618 L1363.9965,180.918 L1362.8965,183.618 L1365.084,183.618 Z " fill="#000000"/><text fill="#000000" font-family="sans-serif" font-size="11.2" font-style="italic" lengthAdjust="spacing" textLength="37.3461" x="1380.309" y="188.2055">Service</text><line style="stroke:#181818;stroke-width:0.4;" x1="1225.584" x2="1546.3801" y1="196.368" y2="196.368"/><text fill="#000000" font-family="sans-serif" font-size="11.2" lengthAdjust="spacing" textLength="107.4008" x="1229.584" y="211.6539">+context: AppContext</text><text fill="#000000" font-family="sans-serif" font-size="11.2" lengthAdjust="spacing" textLength="84.968" x="1229.584" y="226.5508">+commands: dict</text><line style="stroke:#181818;stroke-width:0.4;" x1="1225.584" x2="1546.3801" y1="232.5618" y2="232.5618"/><text fill="#000000" font-family="sans-serif" font-size="11.2" lengthAdjust="spacing" textLength="282.9094" x="1229.584" y="247.8477">+register_command(name: str, command_cls: type): void</text><text fill="#000000" font-family="sans-serif" font-size="11.2" lengthAdjust="spacing" textLength="312.7961" x="1229.584" y="262.7446">+get_command_params(command_name: str): List[Parameter]</text><text fill="#000000" font-family="sans-serif" font-size="11.2" lengthAdjust="spacing" textLength="157.8172" x="1229.584" y="277.6414">+emit_event(event: Event): void</text></g><!--class Event--><g class="entity" data-entity="Event" data-source-line="20" data-uid="ent0005" id="entity_Event"><rect fill="#F1F1F1" height="68.1938" rx="2" ry="2" style="stroke:#181818;stroke-width:0.4;" width="97.0727" x="2367.984" y="507.568"/><ellipse cx="2399.2588" cy="520.368" fill="#ADD1B2" rx="8.8" ry="8.8" style="stroke:#181818;stroke-width:0.8;"/><path d="M2401.4713,517.068 Q2401.5963,516.893 2401.7463,516.8055 Q2401.8963,516.718 2402.0713,516.718 Q2402.3713,516.718 2402.5588,516.9305 Q2402.7463,517.1305 2402.7463,517.618 L2402.7463,518.7805 Q2402.7463,519.268 2402.5588,519.4805 Q2402.3713,519.693 2402.0713,519.693 Q2401.7963,519.693 2401.6338,519.5305 Q2401.4713,519.3805 2401.3838,518.968 Q2401.3463,518.6805 2401.1963,518.5305 Q2400.9338,518.2305 2400.4463,518.0555 Q2399.9588,517.8805 2399.4588,517.8805 Q2398.8463,517.8805 2398.3338,518.143 Q2397.8338,518.4055 2397.4338,519.0055 Q2397.0463,519.6055 2397.0463,520.4305 L2397.0463,521.3055 Q2397.0463,522.293 2397.7588,522.9555 Q2398.4713,523.6055 2399.7463,523.6055 Q2400.4963,523.6055 2401.0213,523.4055 Q2401.3338,523.2805 2401.6713,522.9305 Q2401.8838,522.718 2401.9963,522.6555 Q2402.1213,522.593 2402.2838,522.593 Q2402.5463,522.593 2402.7463,522.8055 Q2402.9588,523.0055 2402.9588,523.2805 Q2402.9588,523.5555 2402.6838,523.8805 Q2402.2838,524.343 2401.6463,524.6055 Q2400.7838,524.968 2399.7463,524.968 Q2398.5338,524.968 2397.5713,524.468 Q2396.7838,524.068 2396.2338,523.218 Q2395.6838,522.3555 2395.6838,521.3305 L2395.6838,520.4055 Q2395.6838,519.343 2396.1713,518.4305 Q2396.6713,517.5055 2397.5463,517.018 Q2398.4213,516.518 2399.4088,516.518 Q2399.9963,516.518 2400.5088,516.6555 Q2401.0338,516.7805 2401.4713,517.068 Z " fill="#000000"/><text fill="#000000" font-family="sans-serif" font-size="11.2" lengthAdjust="spacing" textLength="28.6398" x="2414.742" y="525.0055">Event</text><line style="stroke:#181818;stroke-width:0.4;" x1="2368.784" x2="2464.2567" y1="533.168" y2="533.168"/><text fill="#000000" font-family="sans-serif" font-size="11.2" lengthAdjust="spacing" textLength="87.4727" x="2372.784" y="548.4539">+type: EventType</text><text fill="#000000" font-family="sans-serif" font-size="11.2" lengthAdjust="spacing" textLength="51.9914" x="2372.784" y="563.3508">+data: dict</text><line style="stroke:#181818;stroke-width:0.4;" x1="2368.784" x2="2464.2567" y1="569.3618" y2="569.3618"/></g><!--class EventType--><g class="entity" data-entity="EventType" data-source-line="25" data-uid="ent0006" id="entity_EventType"><rect fill="#F1F1F1" height="276.75" rx="2" ry="2" style="stroke:#181818;stroke-width:0.4;" width="146.5156" x="1847.184" y="88.768"/><ellipse cx="1890.2723" cy="101.568" fill="#EB937F" rx="8.8" ry="8.8" style="stroke:#181818;stroke-width:0.8;"/><path d="M1889.3598,102.2055 L1889.3598,104.2055 L1892.8223,104.2055 L1892.8223,103.468 Q1892.8223,102.9805 1893.0098,102.768 Q1893.2098,102.5555 1893.5098,102.5555 Q1893.8098,102.5555 1893.9973,102.768 Q1894.1848,102.9805 1894.1848,103.468 L1894.1848,105.568 L1887.7848,105.568 Q1887.2848,105.568 1887.0723,105.3805 Q1886.8723,105.193 1886.8723,104.8805 Q1886.8723,104.5805 1887.0848,104.393 Q1887.2973,104.2055 1887.7848,104.2055 L1887.9973,104.2055 L1887.9973,98.8805 L1887.7848,98.8805 Q1887.2848,98.8805 1887.0723,98.693 Q1886.8723,98.5055 1886.8723,98.193 Q1886.8723,97.893 1887.0723,97.7055 Q1887.2848,97.518 1887.7848,97.518 L1893.8848,97.518 L1893.8848,99.593 Q1893.8848,100.0805 1893.6973,100.293 Q1893.5223,100.493 1893.2098,100.493 Q1892.9098,100.493 1892.7223,100.293 Q1892.5348,100.0805 1892.5348,99.593 L1892.5348,98.8805 L1889.3598,98.8805 L1889.3598,100.843 L1890.5473,100.843 Q1890.5473,100.318 1890.6473,100.168 Q1890.8598,99.843 1891.2348,99.843 Q1891.5348,99.843 1891.7223,100.0555 Q1891.9098,100.2555 1891.9098,100.743 L1891.9098,102.318 Q1891.9098,102.7555 1891.8098,102.9055 Q1891.5973,103.218 1891.2348,103.218 Q1890.8598,103.218 1890.6473,102.893 Q1890.5473,102.743 1890.5473,102.2055 L1889.3598,102.2055 Z " fill="#000000"/><text fill="#000000" font-family="sans-serif" font-size="11.2" lengthAdjust="spacing" textLength="53.5391" x="1906.6723" y="106.2055">EventType</text><line style="stroke:#181818;stroke-width:0.4;" x1="1847.984" x2="1992.8996" y1="114.368" y2="114.368"/><text fill="#000000" font-family="sans-serif" font-size="11.2" lengthAdjust="spacing" textLength="36.7117" x="1851.984" y="129.6539">START</text><text fill="#000000" font-family="sans-serif" font-size="11.2" lengthAdjust="spacing" textLength="24.8992" x="1851.984" y="144.5508">IDLE</text><text fill="#000000" font-family="sans-serif" font-size="11.2" lengthAdjust="spacing" textLength="29.2523" x="1851.984" y="159.4477">STEP</text><text fill="#000000" font-family="sans-serif" font-size="11.2" lengthAdjust="spacing" textLength="36.7117" x="1851.984" y="174.3446">FINISH</text><text fill="#000000" font-family="sans-serif" font-size="11.2" lengthAdjust="spacing" textLength="45.4289" x="1851.984" y="189.2414">UPDATE</text><text fill="#000000" font-family="sans-serif" font-size="11.2" lengthAdjust="spacing" textLength="40.4469" x="1851.984" y="204.1383">ERROR</text><text fill="#000000" font-family="sans-serif" font-size="11.2" lengthAdjust="spacing" textLength="24.8938" x="1851.984" y="219.0352">EXIT</text><text fill="#000000" font-family="sans-serif" font-size="11.2" lengthAdjust="spacing" textLength="115.7898" x="1851.984" y="233.9321">SERVICE_AVAILABLE</text><text fill="#000000" font-family="sans-serif" font-size="11.2" lengthAdjust="spacing" textLength="114.5266" x="1851.984" y="248.8289">SERVICE_SELECTED</text><text fill="#000000" font-family="sans-serif" font-size="11.2" lengthAdjust="spacing" textLength="125.7266" x="1851.984" y="263.7258">COMMAND_AVAILABLE</text><text fill="#000000" font-family="sans-serif" font-size="11.2" lengthAdjust="spacing" textLength="136.9156" x="1851.984" y="278.6227">SHOW_SERVICES_MENU</text><text fill="#000000" font-family="sans-serif" font-size="11.2" lengthAdjust="spacing" textLength="124.4633" x="1851.984" y="293.5196">COMMAND_SELECTED</text><text fill="#000000" font-family="sans-serif" font-size="11.2" lengthAdjust="spacing" textLength="126.3227" x="1851.984" y="308.4164">COMMAND_EXECUTED</text><text fill="#000000" font-family="sans-serif" font-size="11.2" lengthAdjust="spacing" textLength="118.2344" x="1851.984" y="323.3133">EXECUTE_COMMAND</text><text fill="#000000" font-family="sans-serif" font-size="11.2" lengthAdjust="spacing" textLength="75.9336" x="1851.984" y="338.2102">EASTER_EGG</text><text fill="#000000" font-family="sans-serif" font-size="11.2" lengthAdjust="spacing" textLength="89.6" x="1851.984" y="353.1071">RUN_COMMAND</text><line style="stroke:#181818;stroke-width:0.4;" x1="1847.984" x2="1992.8996" y1="359.118" y2="359.118"/></g><!--class EventDispatcher--><g class="entity" data-entity="EventDispatcher" data-source-line="44" data-uid="ent0007" id="entity_EventDispatcher"><rect fill="#F1F1F1" height="142.6781" rx="2" ry="2" style="stroke:#181818;stroke-width:0.4;" width="158.6891" x="2306.784" y="155.968"/><ellipse cx="2341.696" cy="168.768" fill="#ADD1B2" rx="8.8" ry="8.8" style="stroke:#181818;stroke-width:0.8;"/><path d="M2343.9085,165.468 Q2344.0335,165.293 2344.1835,165.2055 Q2344.3335,165.118 2344.5085,165.118 Q2344.8085,165.118 2344.996,165.3305 Q2345.1835,165.5305 2345.1835,166.018 L2345.1835,167.1805 Q2345.1835,167.668 2344.996,167.8805 Q2344.8085,168.093 2344.5085,168.093 Q2344.2335,168.093 2344.071,167.9305 Q2343.9085,167.7805 2343.821,167.368 Q2343.7835,167.0805 2343.6335,166.9305 Q2343.371,166.6305 2342.8835,166.4555 Q2342.396,166.2805 2341.896,166.2805 Q2341.2835,166.2805 2340.771,166.543 Q2340.271,166.8055 2339.871,167.4055 Q2339.4835,168.0055 2339.4835,168.8305 L2339.4835,169.7055 Q2339.4835,170.693 2340.196,171.3555 Q2340.9085,172.0055 2342.1835,172.0055 Q2342.9335,172.0055 2343.4585,171.8055 Q2343.771,171.6805 2344.1085,171.3305 Q2344.321,171.118 2344.4335,171.0555 Q2344.5585,170.993 2344.721,170.993 Q2344.9835,170.993 2345.1835,171.2055 Q2345.396,171.4055 2345.396,171.6805 Q2345.396,171.9555 2345.121,172.2805 Q2344.721,172.743 2344.0835,173.0055 Q2343.221,173.368 2342.1835,173.368 Q2340.971,173.368 2340.0085,172.868 Q2339.221,172.468 2338.671,171.618 Q2338.121,170.7555 2338.121,169.7305 L2338.121,168.8055 Q2338.121,167.743 2338.6085,166.8305 Q2339.1085,165.9055 2339.9835,165.418 Q2340.8585,164.918 2341.846,164.918 Q2342.4335,164.918 2342.946,165.0555 Q2343.471,165.1805 2343.9085,165.468 Z " fill="#000000"/><text fill="#000000" font-family="sans-serif" font-size="11.2" lengthAdjust="spacing" textLength="82.1734" x="2357.9876" y="173.4055">EventDispatcher</text><line style="stroke:#181818;stroke-width:0.4;" x1="2307.584" x2="2464.6731" y1="181.568" y2="181.568"/><text fill="#000000" font-family="sans-serif" font-size="11.2" lengthAdjust="spacing" textLength="78.4711" x="2311.584" y="196.8539">-_queue: deque</text><text fill="#000000" font-family="sans-serif" font-size="11.2" lengthAdjust="spacing" textLength="87.1336" x="2311.584" y="211.7508">-_subscribers: list</text><line style="stroke:#181818;stroke-width:0.4;" x1="2307.584" x2="2464.6731" y1="217.7618" y2="217.7618"/><text fill="#000000" font-family="sans-serif" font-size="11.2" lengthAdjust="spacing" textLength="98.6836" x="2311.584" y="233.0477">+has_events(): bool</text><text fill="#000000" font-family="sans-serif" font-size="11.2" lengthAdjust="spacing" textLength="124.1898" x="2311.584" y="247.9446">+emit(event: Event): void</text><text fill="#000000" font-family="sans-serif" font-size="11.2" lengthAdjust="spacing" textLength="103.6602" x="2311.584" y="262.8414">+next_event(): Event</text><text fill="#000000" font-family="sans-serif" font-size="11.2" lengthAdjust="spacing" textLength="149.0891" x="2311.584" y="277.7383">+subscribe(listener: any): void</text><text fill="#000000" font-family="sans-serif" font-size="11.2" lengthAdjust="spacing" textLength="82.4852" x="2311.584" y="292.6352">+dispatch(): void</text></g><!--class Parameter--><g class="entity" data-entity="Parameter" data-source-line="54" data-uid="ent0008" id="entity_Parameter"><rect fill="#F1F1F1" height="127.7813" rx="2" ry="2" style="stroke:#181818;stroke-width:0.4;" width="138.1539" x="2146.384" y="477.568"/><ellipse cx="2185.9176" cy="490.368" fill="#ADD1B2" rx="8.8" ry="8.8" style="stroke:#181818;stroke-width:0.8;"/><path d="M2188.1301,487.068 Q2188.2551,486.893 2188.4051,486.8055 Q2188.5551,486.718 2188.7301,486.718 Q2189.0301,486.718 2189.2176,486.9305 Q2189.4051,487.1305 2189.4051,487.618 L2189.4051,488.7805 Q2189.4051,489.268 2189.2176,489.4805 Q2189.0301,489.693 2188.7301,489.693 Q2188.4551,489.693 2188.2926,489.5305 Q2188.1301,489.3805 2188.0426,488.968 Q2188.0051,488.6805 2187.8551,488.5305 Q2187.5926,488.2305 2187.1051,488.0555 Q2186.6176,487.8805 2186.1176,487.8805 Q2185.5051,487.8805 2184.9926,488.143 Q2184.4926,488.4055 2184.0926,489.0055 Q2183.7051,489.6055 2183.7051,490.4305 L2183.7051,491.3055 Q2183.7051,492.293 2184.4176,492.9555 Q2185.1301,493.6055 2186.4051,493.6055 Q2187.1551,493.6055 2187.6801,493.4055 Q2187.9926,493.2805 2188.3301,492.9305 Q2188.5426,492.718 2188.6551,492.6555 Q2188.7801,492.593 2188.9426,492.593 Q2189.2051,492.593 2189.4051,492.8055 Q2189.6176,493.0055 2189.6176,493.2805 Q2189.6176,493.5555 2189.3426,493.8805 Q2188.9426,494.343 2188.3051,494.6055 Q2187.4426,494.968 2186.4051,494.968 Q2185.1926,494.968 2184.2301,494.468 Q2183.4426,494.068 2182.8926,493.218 Q2182.3426,492.3555 2182.3426,491.3305 L2182.3426,490.4055 Q2182.3426,489.343 2182.8301,488.4305 Q2183.3301,487.5055 2184.2051,487.018 Q2185.0801,486.518 2186.0676,486.518 Q2186.6551,486.518 2187.1676,486.6555 Q2187.6926,486.7805 2188.1301,487.068 Z " fill="#000000"/><text fill="#000000" font-family="sans-serif" font-size="11.2" lengthAdjust="spacing" textLength="52.2867" x="2202.3176" y="495.0055">Parameter</text><line style="stroke:#181818;stroke-width:0.4;" x1="2147.184" x2="2283.7379" y1="503.168" y2="503.168"/><text fill="#000000" font-family="sans-serif" font-size="11.2" lengthAdjust="spacing" textLength="53.2219" x="2151.184" y="518.4539">+name: str</text><text fill="#000000" font-family="sans-serif" font-size="11.2" lengthAdjust="spacing" textLength="94.3141" x="2151.184" y="533.3508">+display_name: str</text><text fill="#000000" font-family="sans-serif" font-size="11.2" lengthAdjust="spacing" textLength="79.368" x="2151.184" y="548.2477">+description: str</text><text fill="#000000" font-family="sans-serif" font-size="11.2" lengthAdjust="spacing" textLength="81.2492" x="2151.184" y="563.1446">+parse: Callable</text><text fill="#000000" font-family="sans-serif" font-size="11.2" lengthAdjust="spacing" textLength="128.5539" x="2151.184" y="578.0414">+validators: List[Validator]</text><line style="stroke:#181818;stroke-width:0.4;" x1="2147.184" x2="2283.7379" y1="584.0524" y2="584.0524"/><text fill="#000000" font-family="sans-serif" font-size="11.2" lengthAdjust="spacing" textLength="120.4492" x="2151.184" y="599.3383">+convert(value: str): any</text></g><!--class ParameterSchema--><g class="entity" data-entity="ParameterSchema" data-source-line="63" data-uid="ent0009" id="entity_ParameterSchema"><rect fill="#F1F1F1" height="157.575" rx="2" ry="2" style="stroke:#181818;stroke-width:0.4;" width="257.0445" x="2021.584" y="148.368"/><ellipse cx="2100.0195" cy="161.168" fill="#ADD1B2" rx="8.8" ry="8.8" style="stroke:#181818;stroke-width:0.8;"/><path d="M2102.232,157.868 Q2102.357,157.693 2102.507,157.6055 Q2102.657,157.518 2102.832,157.518 Q2103.132,157.518 2103.3195,157.7305 Q2103.507,157.9305 2103.507,158.418 L2103.507,159.5805 Q2103.507,160.068 2103.3195,160.2805 Q2103.132,160.493 2102.832,160.493 Q2102.557,160.493 2102.3945,160.3305 Q2102.232,160.1805 2102.1445,159.768 Q2102.107,159.4805 2101.957,159.3305 Q2101.6945,159.0305 2101.207,158.8555 Q2100.7195,158.6805 2100.2195,158.6805 Q2099.607,158.6805 2099.0945,158.943 Q2098.5945,159.2055 2098.1945,159.8055 Q2097.807,160.4055 2097.807,161.2305 L2097.807,162.1055 Q2097.807,163.093 2098.5195,163.7555 Q2099.232,164.4055 2100.507,164.4055 Q2101.257,164.4055 2101.782,164.2055 Q2102.0945,164.0805 2102.432,163.7305 Q2102.6445,163.518 2102.757,163.4555 Q2102.882,163.393 2103.0445,163.393 Q2103.307,163.393 2103.507,163.6055 Q2103.7195,163.8055 2103.7195,164.0805 Q2103.7195,164.3555 2103.4445,164.6805 Q2103.0445,165.143 2102.407,165.4055 Q2101.5445,165.768 2100.507,165.768 Q2099.2945,165.768 2098.332,165.268 Q2097.5445,164.868 2096.9945,164.018 Q2096.4445,163.1555 2096.4445,162.1305 L2096.4445,161.2055 Q2096.4445,160.143 2096.932,159.2305 Q2097.432,158.3055 2098.307,157.818 Q2099.182,157.318 2100.1695,157.318 Q2100.757,157.318 2101.2695,157.4555 Q2101.7945,157.5805 2102.232,157.868 Z " fill="#000000"/><text fill="#000000" font-family="sans-serif" font-size="11.2" lengthAdjust="spacing" textLength="93.3734" x="2116.4195" y="165.8055">ParameterSchema</text><line style="stroke:#181818;stroke-width:0.4;" x1="2022.384" x2="2277.8285" y1="173.968" y2="173.968"/><text fill="#000000" font-family="sans-serif" font-size="11.2" lengthAdjust="spacing" textLength="53.2219" x="2026.384" y="189.2539">+name: str</text><text fill="#000000" font-family="sans-serif" font-size="11.2" lengthAdjust="spacing" textLength="94.3141" x="2026.384" y="204.1508">+display_name: str</text><text fill="#000000" font-family="sans-serif" font-size="11.2" lengthAdjust="spacing" textLength="79.368" x="2026.384" y="219.0477">+description: str</text><text fill="#000000" font-family="sans-serif" font-size="11.2" lengthAdjust="spacing" textLength="86.2367" x="2026.384" y="233.9446">+parse_type: any</text><text fill="#000000" font-family="sans-serif" font-size="11.2" lengthAdjust="spacing" textLength="101.7844" x="2026.384" y="248.8414">+parameter_cls: any</text><text fill="#000000" font-family="sans-serif" font-size="11.2" lengthAdjust="spacing" textLength="128.5539" x="2026.384" y="263.7383">+validators: List[Validator]</text><line style="stroke:#181818;stroke-width:0.4;" x1="2022.384" x2="2277.8285" y1="269.7493" y2="269.7493"/><text fill="#000000" font-family="sans-serif" font-size="11.2" lengthAdjust="spacing" textLength="213.8172" x="2026.384" y="285.0352">+with_range(min, max): ParameterSchema</text><text fill="#000000" font-family="sans-serif" font-size="11.2" lengthAdjust="spacing" textLength="247.4445" x="2026.384" y="299.9321">+build(custom_desc, extra_validators): Parameter</text></g><!--class Validator--><g class="entity" data-entity="Validator" data-source-line="74" data-uid="ent0010" id="entity_Validator"><rect fill="#F1F1F1" height="53.2969" rx="2" ry="2" style="stroke:#181818;stroke-width:0.4;" width="143.1469" x="2071.984" y="669.168"/><ellipse cx="2118.0555" cy="681.968" fill="#A9DCDF" rx="8.8" ry="8.8" style="stroke:#181818;stroke-width:0.8;"/><path d="M2119.8055,683.3805 L2116.493,683.3805 L2116.1555,684.2055 L2116.493,684.2055 Q2116.9805,684.2055 2117.193,684.393 Q2117.4055,684.5805 2117.4055,684.893 Q2117.4055,685.193 2117.193,685.3805 Q2116.9805,685.568 2116.493,685.568 L2114.6555,685.568 Q2114.168,685.568 2113.968,685.3805 Q2113.7555,685.193 2113.7555,684.8805 Q2113.7555,684.5805 2113.9805,684.393 Q2114.193,684.193 2114.693,684.2055 L2116.8305,678.8805 L2115.943,678.8805 Q2115.4555,678.8805 2115.243,678.693 Q2115.0305,678.5055 2115.0305,678.193 Q2115.0305,677.893 2115.243,677.7055 Q2115.4555,677.518 2115.943,677.518 L2118.8805,677.518 L2121.593,684.2055 Q2122.068,684.2055 2122.218,684.318 Q2122.5305,684.5305 2122.5305,684.893 Q2122.5305,685.193 2122.318,685.3805 Q2122.118,685.568 2121.6305,685.568 L2119.793,685.568 Q2119.3055,685.568 2119.093,685.3805 Q2118.8805,685.193 2118.8805,684.8805 Q2118.8805,684.5805 2119.093,684.393 Q2119.3055,684.2055 2119.793,684.2055 L2120.1305,684.2055 L2119.8055,683.3805 Z M2119.2305,682.018 L2118.143,679.318 L2117.043,682.018 L2119.2305,682.018 Z " fill="#000000"/><text fill="#000000" font-family="sans-serif" font-size="11.2" font-style="italic" lengthAdjust="spacing" textLength="44.2039" x="2134.4555" y="686.6055">Validator</text><line style="stroke:#181818;stroke-width:0.4;" x1="2072.784" x2="2214.3309" y1="694.768" y2="694.768"/><line style="stroke:#181818;stroke-width:0.4;" x1="2072.784" x2="2214.3309" y1="701.168" y2="701.168"/><text fill="#000000" font-family="sans-serif" font-size="11.2" font-style="italic" lengthAdjust="spacing" textLength="133.5469" x="2076.784" y="716.4539">+__call__(value: any): void</text></g><!--class Application--><g class="entity" data-entity="Application" data-source-line="80" data-uid="ent0012" id="entity_Application"><rect fill="#F1F1F1" height="157.575" rx="2" ry="2" style="stroke:#181818;stroke-width:0.4;" width="261.3703" x="2943.984" y="148.368"/><ellipse cx="3043.8735" cy="161.168" fill="#ADD1B2" rx="8.8" ry="8.8" style="stroke:#181818;stroke-width:0.8;"/><path d="M3046.086,157.868 Q3046.211,157.693 3046.361,157.6055 Q3046.511,157.518 3046.686,157.518 Q3046.986,157.518 3047.1735,157.7305 Q3047.361,157.9305 3047.361,158.418 L3047.361,159.5805 Q3047.361,160.068 3047.1735,160.2805 Q3046.986,160.493 3046.686,160.493 Q3046.411,160.493 3046.2485,160.3305 Q3046.086,160.1805 3045.9985,159.768 Q3045.961,159.4805 3045.811,159.3305 Q3045.5485,159.0305 3045.061,158.8555 Q3044.5735,158.6805 3044.0735,158.6805 Q3043.461,158.6805 3042.9485,158.943 Q3042.4485,159.2055 3042.0485,159.8055 Q3041.661,160.4055 3041.661,161.2305 L3041.661,162.1055 Q3041.661,163.093 3042.3735,163.7555 Q3043.086,164.4055 3044.361,164.4055 Q3045.111,164.4055 3045.636,164.2055 Q3045.9485,164.0805 3046.286,163.7305 Q3046.4985,163.518 3046.611,163.4555 Q3046.736,163.393 3046.8985,163.393 Q3047.161,163.393 3047.361,163.6055 Q3047.5735,163.8055 3047.5735,164.0805 Q3047.5735,164.3555 3047.2985,164.6805 Q3046.8985,165.143 3046.261,165.4055 Q3045.3985,165.768 3044.361,165.768 Q3043.1485,165.768 3042.186,165.268 Q3041.3985,164.868 3040.8485,164.018 Q3040.2985,163.1555 3040.2985,162.1305 L3040.2985,161.2055 Q3040.2985,160.143 3040.786,159.2305 Q3041.286,158.3055 3042.161,157.818 Q3043.036,157.318 3044.0235,157.318 Q3044.611,157.318 3045.1235,157.4555 Q3045.6485,157.5805 3046.086,157.868 Z " fill="#000000"/><text fill="#000000" font-family="sans-serif" font-size="11.2" lengthAdjust="spacing" textLength="54.7914" x="3060.2735" y="165.8055">Application</text><line style="stroke:#181818;stroke-width:0.4;" x1="2944.784" x2="3204.5543" y1="173.968" y2="173.968"/><text fill="#000000" font-family="sans-serif" font-size="11.2" lengthAdjust="spacing" textLength="107.4008" x="2948.784" y="189.2539">+context: AppContext</text><text fill="#000000" font-family="sans-serif" font-size="11.2" lengthAdjust="spacing" textLength="71.2688" x="2948.784" y="204.1508">+services: dict</text><text fill="#000000" font-family="sans-serif" font-size="11.2" lengthAdjust="spacing" textLength="71.3016" x="2948.784" y="219.0477">+running: bool</text><line style="stroke:#181818;stroke-width:0.4;" x1="2944.784" x2="3204.5543" y1="225.0586" y2="225.0586"/><text fill="#000000" font-family="sans-serif" font-size="11.2" lengthAdjust="spacing" textLength="170.2914" x="2948.784" y="240.3446">+handle_event(event: Event): void</text><text fill="#000000" font-family="sans-serif" font-size="11.2" lengthAdjust="spacing" textLength="251.7703" x="2948.784" y="255.2414">+register_service(name: str, service: Service): void</text><text fill="#000000" font-family="sans-serif" font-size="11.2" lengthAdjust="spacing" textLength="216.9344" x="2948.784" y="270.1383">+run_command(command: Command): any</text><text fill="#000000" font-family="sans-serif" font-size="11.2" lengthAdjust="spacing" textLength="56.957" x="2948.784" y="285.0352">+run(): void</text><text fill="#000000" font-family="sans-serif" font-size="11.2" lengthAdjust="spacing" textLength="160.9234" x="2948.784" y="299.9321">+run_with_gui(viewer: any): void</text></g><!--class AppContext--><g class="entity" data-entity="AppContext" data-source-line="91" data-uid="ent0013" id="entity_AppContext"><rect fill="#F1F1F1" height="68.1938" rx="2" ry="2" style="stroke:#181818;stroke-width:0.4;" width="137.5359" x="2943.584" y="507.568"/><ellipse cx="2979.6887" cy="520.368" fill="#ADD1B2" rx="8.8" ry="8.8" style="stroke:#181818;stroke-width:0.8;"/><path d="M2981.9012,517.068 Q2982.0262,516.893 2982.1762,516.8055 Q2982.3262,516.718 2982.5012,516.718 Q2982.8012,516.718 2982.9887,516.9305 Q2983.1762,517.1305 2983.1762,517.618 L2983.1762,518.7805 Q2983.1762,519.268 2982.9887,519.4805 Q2982.8012,519.693 2982.5012,519.693 Q2982.2262,519.693 2982.0637,519.5305 Q2981.9012,519.3805 2981.8137,518.968 Q2981.7762,518.6805 2981.6262,518.5305 Q2981.3637,518.2305 2980.8762,518.0555 Q2980.3887,517.8805 2979.8887,517.8805 Q2979.2762,517.8805 2978.7637,518.143 Q2978.2637,518.4055 2977.8637,519.0055 Q2977.4762,519.6055 2977.4762,520.4305 L2977.4762,521.3055 Q2977.4762,522.293 2978.1887,522.9555 Q2978.9012,523.6055 2980.1762,523.6055 Q2980.9262,523.6055 2981.4512,523.4055 Q2981.7637,523.2805 2982.1012,522.9305 Q2982.3137,522.718 2982.4262,522.6555 Q2982.5512,522.593 2982.7137,522.593 Q2982.9762,522.593 2983.1762,522.8055 Q2983.3887,523.0055 2983.3887,523.2805 Q2983.3887,523.5555 2983.1137,523.8805 Q2982.7137,524.343 2982.0762,524.6055 Q2981.2137,524.968 2980.1762,524.968 Q2978.9637,524.968 2978.0012,524.468 Q2977.2137,524.068 2976.6637,523.218 Q2976.1137,522.3555 2976.1137,521.3305 L2976.1137,520.4055 Q2976.1137,519.343 2976.6012,518.4305 Q2977.1012,517.5055 2977.9762,517.018 Q2978.8512,516.518 2979.8387,516.518 Q2980.4262,516.518 2980.9387,516.6555 Q2981.4637,516.7805 2981.9012,517.068 Z " fill="#000000"/><text fill="#000000" font-family="sans-serif" font-size="11.2" lengthAdjust="spacing" textLength="58.5266" x="2996.0887" y="525.0055">AppContext</text><line style="stroke:#181818;stroke-width:0.4;" x1="2944.384" x2="3080.3199" y1="533.168" y2="533.168"/><text fill="#000000" font-family="sans-serif" font-size="11.2" lengthAdjust="spacing" textLength="51.9914" x="2948.384" y="548.4539">+data: dict</text><text fill="#000000" font-family="sans-serif" font-size="11.2" lengthAdjust="spacing" textLength="127.9359" x="2948.384" y="563.3508">+events: EventDispatcher</text><line style="stroke:#181818;stroke-width:0.4;" x1="2944.384" x2="3080.3199" y1="569.3618" y2="569.3618"/></g><!--class MetalCalcService--><g class="entity" data-entity="MetalCalcService" data-source-line="98" data-uid="ent0015" id="entity_MetalCalcService"><rect fill="#F1F1F1" height="142.6781" rx="2" ry="2" style="stroke:#181818;stroke-width:0.4;" width="224.0516" x="741.184" y="919.968"/><ellipse cx="806.2403" cy="932.768" fill="#ADD1B2" rx="8.8" ry="8.8" style="stroke:#181818;stroke-width:0.8;"/><path d="M808.4528,929.468 Q808.5778,929.293 808.7278,929.2055 Q808.8778,929.118 809.0528,929.118 Q809.3528,929.118 809.5403,929.3305 Q809.7278,929.5305 809.7278,930.018 L809.7278,931.1805 Q809.7278,931.668 809.5403,931.8805 Q809.3528,932.093 809.0528,932.093 Q808.7778,932.093 808.6153,931.9305 Q808.4528,931.7805 808.3653,931.368 Q808.3278,931.0805 808.1778,930.9305 Q807.9153,930.6305 807.4278,930.4555 Q806.9403,930.2805 806.4403,930.2805 Q805.8278,930.2805 805.3153,930.543 Q804.8153,930.8055 804.4153,931.4055 Q804.0278,932.0055 804.0278,932.8305 L804.0278,933.7055 Q804.0278,934.693 804.7403,935.3555 Q805.4528,936.0055 806.7278,936.0055 Q807.4778,936.0055 808.0028,935.8055 Q808.3153,935.6805 808.6528,935.3305 Q808.8653,935.118 808.9778,935.0555 Q809.1028,934.993 809.2653,934.993 Q809.5278,934.993 809.7278,935.2055 Q809.9403,935.4055 809.9403,935.6805 Q809.9403,935.9555 809.6653,936.2805 Q809.2653,936.743 808.6278,937.0055 Q807.7653,937.368 806.7278,937.368 Q805.5153,937.368 804.5528,936.868 Q803.7653,936.468 803.2153,935.618 Q802.6653,934.7555 802.6653,933.7305 L802.6653,932.8055 Q802.6653,931.743 803.1528,930.8305 Q803.6528,929.9055 804.5278,929.418 Q805.4028,928.918 806.3903,928.918 Q806.9778,928.918 807.4903,929.0555 Q808.0153,929.1805 808.4528,929.468 Z " fill="#000000"/><text fill="#000000" font-family="sans-serif" font-size="11.2" lengthAdjust="spacing" textLength="87.1391" x="822.6403" y="937.4055">MetalCalcService</text><line style="stroke:#181818;stroke-width:0.4;" x1="741.984" x2="964.4356" y1="945.568" y2="945.568"/><text fill="#000000" font-family="sans-serif" font-size="11.2" lengthAdjust="spacing" textLength="106.7719" x="745.984" y="960.8539">+displayed_name: str</text><text fill="#000000" font-family="sans-serif" font-size="11.2" lengthAdjust="spacing" textLength="149.0727" x="745.984" y="975.7508">+materials: List[MetalMaterial]</text><line style="stroke:#181818;stroke-width:0.4;" x1="741.984" x2="964.4356" y1="981.7618" y2="981.7618"/><text fill="#000000" font-family="sans-serif" font-size="11.2" lengthAdjust="spacing" textLength="99.8977" x="745.984" y="997.0477">+get_materials(): str</text><text fill="#000000" font-family="sans-serif" font-size="11.2" lengthAdjust="spacing" textLength="132.9125" x="745.984" y="1011.9446">+get_materials_count(): int</text><text fill="#000000" font-family="sans-serif" font-size="11.2" lengthAdjust="spacing" textLength="214.4516" x="745.984" y="1026.8414">+get_material_by_id(idx: int): MetalMaterial</text><text fill="#000000" font-family="sans-serif" font-size="11.2" lengthAdjust="spacing" textLength="146.6336" x="745.984" y="1041.7383">+calculate_pipe_unfolding(...)</text><text fill="#000000" font-family="sans-serif" font-size="11.2" lengthAdjust="spacing" textLength="154.7219" x="745.984" y="1056.6352">+calculate_elbow_unfolding(...)</text></g><!--class CalculateMetalCommand--><g class="entity" data-entity="CalculateMetalCommand" data-source-line="108" data-uid="ent0017" id="entity_CalculateMetalCommand"><rect fill="#F1F1F1" height="83.0906" rx="2" ry="2" style="stroke:#181818;stroke-width:0.4;" width="151.343" x="915.184" y="499.968"/><ellipse cx="927.184" cy="512.768" fill="#A9DCDF" rx="8.8" ry="8.8" style="stroke:#181818;stroke-width:0.8;"/><path d="M928.934,514.1805 L925.6215,514.1805 L925.284,515.0055 L925.6215,515.0055 Q926.109,515.0055 926.3215,515.193 Q926.534,515.3805 926.534,515.693 Q926.534,515.993 926.3215,516.1805 Q926.109,516.368 925.6215,516.368 L923.784,516.368 Q923.2965,516.368 923.0965,516.1805 Q922.884,515.993 922.884,515.6805 Q922.884,515.3805 923.109,515.193 Q923.3215,514.993 923.8215,515.0055 L925.959,509.6805 L925.0715,509.6805 Q924.584,509.6805 924.3715,509.493 Q924.159,509.3055 924.159,508.993 Q924.159,508.693 924.3715,508.5055 Q924.584,508.318 925.0715,508.318 L928.009,508.318 L930.7215,515.0055 Q931.1965,515.0055 931.3465,515.118 Q931.659,515.3305 931.659,515.693 Q931.659,515.993 931.4465,516.1805 Q931.2465,516.368 930.759,516.368 L928.9215,516.368 Q928.434,516.368 928.2215,516.1805 Q928.009,515.993 928.009,515.6805 Q928.009,515.3805 928.2215,515.193 Q928.434,515.0055 928.9215,515.0055 L929.259,515.0055 L928.934,514.1805 Z M928.359,512.818 L927.2715,510.118 L926.1715,512.818 L928.359,512.818 Z " fill="#000000"/><text fill="#000000" font-family="sans-serif" font-size="11.2" font-style="italic" lengthAdjust="spacing" textLength="125.743" x="938.384" y="517.4055">CalculateMetalCommand</text><line style="stroke:#181818;stroke-width:0.4;" x1="915.984" x2="1065.727" y1="525.568" y2="525.568"/><text fill="#000000" font-family="sans-serif" font-size="11.2" lengthAdjust="spacing" textLength="135.3789" x="919.984" y="540.8539">+service: MetalCalcService</text><text fill="#000000" font-family="sans-serif" font-size="11.2" lengthAdjust="spacing" textLength="88.1016" x="919.984" y="555.7508">+has_salary: bool</text><text fill="#000000" font-family="sans-serif" font-size="11.2" lengthAdjust="spacing" textLength="97.4313" x="919.984" y="570.6477">+material_index: int</text><line style="stroke:#181818;stroke-width:0.4;" x1="915.984" x2="1065.727" y1="576.6586" y2="576.6586"/></g><!--class CalculateMetalRoundCommand--><g class="entity" data-entity="CalculateMetalRoundCommand" data-source-line="114" data-uid="ent0018" id="entity_CalculateMetalRoundCommand"><rect fill="#F1F1F1" height="53.2969" rx="2" ry="2" style="stroke:#181818;stroke-width:0.4;" width="184.3469" x="777.984" y="669.168"/><ellipse cx="789.984" cy="681.968" fill="#A9DCDF" rx="8.8" ry="8.8" style="stroke:#181818;stroke-width:0.8;"/><path d="M791.734,683.3805 L788.4215,683.3805 L788.084,684.2055 L788.4215,684.2055 Q788.909,684.2055 789.1215,684.393 Q789.334,684.5805 789.334,684.893 Q789.334,685.193 789.1215,685.3805 Q788.909,685.568 788.4215,685.568 L786.584,685.568 Q786.0965,685.568 785.8965,685.3805 Q785.684,685.193 785.684,684.8805 Q785.684,684.5805 785.909,684.393 Q786.1215,684.193 786.6215,684.2055 L788.759,678.8805 L787.8715,678.8805 Q787.384,678.8805 787.1715,678.693 Q786.959,678.5055 786.959,678.193 Q786.959,677.893 787.1715,677.7055 Q787.384,677.518 787.8715,677.518 L790.809,677.518 L793.5215,684.2055 Q793.9965,684.2055 794.1465,684.318 Q794.459,684.5305 794.459,684.893 Q794.459,685.193 794.2465,685.3805 Q794.0465,685.568 793.559,685.568 L791.7215,685.568 Q791.234,685.568 791.0215,685.3805 Q790.809,685.193 790.809,684.8805 Q790.809,684.5805 791.0215,684.393 Q791.234,684.2055 791.7215,684.2055 L792.059,684.2055 L791.734,683.3805 Z M791.159,682.018 L790.0715,679.318 L788.9715,682.018 L791.159,682.018 Z " fill="#000000"/><text fill="#000000" font-family="sans-serif" font-size="11.2" font-style="italic" lengthAdjust="spacing" textLength="158.7469" x="801.184" y="686.6055">CalculateMetalRoundCommand</text><line style="stroke:#181818;stroke-width:0.4;" x1="778.784" x2="961.5309" y1="694.768" y2="694.768"/><text fill="#000000" font-family="sans-serif" font-size="11.2" lengthAdjust="spacing" textLength="77.5086" x="782.784" y="710.0539">+diameter: float</text><line style="stroke:#181818;stroke-width:0.4;" x1="778.784" x2="961.5309" y1="716.0649" y2="716.0649"/></g><!--class GetMaterialsCommand--><g class="entity" data-entity="GetMaterialsCommand" data-source-line="118" data-uid="ent0019" id="entity_GetMaterialsCommand"><rect fill="#F1F1F1" height="53.2969" rx="2" ry="2" style="stroke:#181818;stroke-width:0.4;" width="140.75" x="1019.584" y="802.768"/><ellipse cx="1031.584" cy="815.568" fill="#ADD1B2" rx="8.8" ry="8.8" style="stroke:#181818;stroke-width:0.8;"/><path d="M1033.7965,812.268 Q1033.9215,812.093 1034.0715,812.0055 Q1034.2215,811.918 1034.3965,811.918 Q1034.6965,811.918 1034.884,812.1305 Q1035.0715,812.3305 1035.0715,812.818 L1035.0715,813.9805 Q1035.0715,814.468 1034.884,814.6805 Q1034.6965,814.893 1034.3965,814.893 Q1034.1215,814.893 1033.959,814.7305 Q1033.7965,814.5805 1033.709,814.168 Q1033.6715,813.8805 1033.5215,813.7305 Q1033.259,813.4305 1032.7715,813.2555 Q1032.284,813.0805 1031.784,813.0805 Q1031.1715,813.0805 1030.659,813.343 Q1030.159,813.6055 1029.759,814.2055 Q1029.3715,814.8055 1029.3715,815.6305 L1029.3715,816.5055 Q1029.3715,817.493 1030.084,818.1555 Q1030.7965,818.8055 1032.0715,818.8055 Q1032.8215,818.8055 1033.3465,818.6055 Q1033.659,818.4805 1033.9965,818.1305 Q1034.209,817.918 1034.3215,817.8555 Q1034.4465,817.793 1034.609,817.793 Q1034.8715,817.793 1035.0715,818.0055 Q1035.284,818.2055 1035.284,818.4805 Q1035.284,818.7555 1035.009,819.0805 Q1034.609,819.543 1033.9715,819.8055 Q1033.109,820.168 1032.0715,820.168 Q1030.859,820.168 1029.8965,819.668 Q1029.109,819.268 1028.559,818.418 Q1028.009,817.5555 1028.009,816.5305 L1028.009,815.6055 Q1028.009,814.543 1028.4965,813.6305 Q1028.9965,812.7055 1029.8715,812.218 Q1030.7465,811.718 1031.734,811.718 Q1032.3215,811.718 1032.834,811.8555 Q1033.359,811.9805 1033.7965,812.268 Z " fill="#000000"/><text fill="#000000" font-family="sans-serif" font-size="11.2" lengthAdjust="spacing" textLength="115.15" x="1042.784" y="820.2055">GetMaterialsCommand</text><line style="stroke:#181818;stroke-width:0.4;" x1="1020.384" x2="1159.534" y1="828.368" y2="828.368"/><line style="stroke:#181818;stroke-width:0.4;" x1="1020.384" x2="1159.534" y1="834.768" y2="834.768"/><text fill="#000000" font-family="sans-serif" font-size="11.2" lengthAdjust="spacing" textLength="114.2313" x="1024.384" y="850.0539">+_execute(context): str</text></g><!--class CalculatePipeCommand--><g class="entity" data-entity="CalculatePipeCommand" data-source-line="122" data-uid="ent0020" id="entity_CalculatePipeCommand"><rect fill="#F1F1F1" height="68.1938" rx="2" ry="2" style="stroke:#181818;stroke-width:0.4;" width="146.3719" x="632.784" y="795.568"/><ellipse cx="644.784" cy="808.368" fill="#ADD1B2" rx="8.8" ry="8.8" style="stroke:#181818;stroke-width:0.8;"/><path d="M646.9965,805.068 Q647.1215,804.893 647.2715,804.8055 Q647.4215,804.718 647.5965,804.718 Q647.8965,804.718 648.084,804.9305 Q648.2715,805.1305 648.2715,805.618 L648.2715,806.7805 Q648.2715,807.268 648.084,807.4805 Q647.8965,807.693 647.5965,807.693 Q647.3215,807.693 647.159,807.5305 Q646.9965,807.3805 646.909,806.968 Q646.8715,806.6805 646.7215,806.5305 Q646.459,806.2305 645.9715,806.0555 Q645.484,805.8805 644.984,805.8805 Q644.3715,805.8805 643.859,806.143 Q643.359,806.4055 642.959,807.0055 Q642.5715,807.6055 642.5715,808.4305 L642.5715,809.3055 Q642.5715,810.293 643.284,810.9555 Q643.9965,811.6055 645.2715,811.6055 Q646.0215,811.6055 646.5465,811.4055 Q646.859,811.2805 647.1965,810.9305 Q647.409,810.718 647.5215,810.6555 Q647.6465,810.593 647.809,810.593 Q648.0715,810.593 648.2715,810.8055 Q648.484,811.0055 648.484,811.2805 Q648.484,811.5555 648.209,811.8805 Q647.809,812.343 647.1715,812.6055 Q646.309,812.968 645.2715,812.968 Q644.059,812.968 643.0965,812.468 Q642.309,812.068 641.759,811.218 Q641.209,810.3555 641.209,809.3305 L641.209,808.4055 Q641.209,807.343 641.6965,806.4305 Q642.1965,805.5055 643.0715,805.018 Q643.9465,804.518 644.934,804.518 Q645.5215,804.518 646.034,804.6555 Q646.559,804.7805 646.9965,805.068 Z " fill="#000000"/><text fill="#000000" font-family="sans-serif" font-size="11.2" lengthAdjust="spacing" textLength="120.7719" x="655.984" y="813.0055">CalculatePipeCommand</text><line style="stroke:#181818;stroke-width:0.4;" x1="633.584" x2="778.3559" y1="821.168" y2="821.168"/><text fill="#000000" font-family="sans-serif" font-size="11.2" lengthAdjust="spacing" textLength="64.4492" x="637.584" y="836.4539">+length: float</text><line style="stroke:#181818;stroke-width:0.4;" x1="633.584" x2="778.3559" y1="842.4649" y2="842.4649"/><text fill="#000000" font-family="sans-serif" font-size="11.2" lengthAdjust="spacing" textLength="114.2313" x="637.584" y="857.7508">+_execute(context): str</text></g><!--class CalculateElbowCommand--><g class="entity" data-entity="CalculateElbowCommand" data-source-line="127" data-uid="ent0021" id="entity_CalculateElbowCommand"><rect fill="#F1F1F1" height="83.0906" rx="2" ry="2" style="stroke:#181818;stroke-width:0.4;" width="154.4602" x="807.184" y="787.968"/><ellipse cx="819.184" cy="800.768" fill="#ADD1B2" rx="8.8" ry="8.8" style="stroke:#181818;stroke-width:0.8;"/><path d="M821.3965,797.468 Q821.5215,797.293 821.6715,797.2055 Q821.8215,797.118 821.9965,797.118 Q822.2965,797.118 822.484,797.3305 Q822.6715,797.5305 822.6715,798.018 L822.6715,799.1805 Q822.6715,799.668 822.484,799.8805 Q822.2965,800.093 821.9965,800.093 Q821.7215,800.093 821.559,799.9305 Q821.3965,799.7805 821.309,799.368 Q821.2715,799.0805 821.1215,798.9305 Q820.859,798.6305 820.3715,798.4555 Q819.884,798.2805 819.384,798.2805 Q818.7715,798.2805 818.259,798.543 Q817.759,798.8055 817.359,799.4055 Q816.9715,800.0055 816.9715,800.8305 L816.9715,801.7055 Q816.9715,802.693 817.684,803.3555 Q818.3965,804.0055 819.6715,804.0055 Q820.4215,804.0055 820.9465,803.8055 Q821.259,803.6805 821.5965,803.3305 Q821.809,803.118 821.9215,803.0555 Q822.0465,802.993 822.209,802.993 Q822.4715,802.993 822.6715,803.2055 Q822.884,803.4055 822.884,803.6805 Q822.884,803.9555 822.609,804.2805 Q822.209,804.743 821.5715,805.0055 Q820.709,805.368 819.6715,805.368 Q818.459,805.368 817.4965,804.868 Q816.709,804.468 816.159,803.618 Q815.609,802.7555 815.609,801.7305 L815.609,800.8055 Q815.609,799.743 816.0965,798.8305 Q816.5965,797.9055 817.4715,797.418 Q818.3465,796.918 819.334,796.918 Q819.9215,796.918 820.434,797.0555 Q820.959,797.1805 821.3965,797.468 Z " fill="#000000"/><text fill="#000000" font-family="sans-serif" font-size="11.2" lengthAdjust="spacing" textLength="128.8602" x="830.384" y="805.4055">CalculateElbowCommand</text><line style="stroke:#181818;stroke-width:0.4;" x1="807.984" x2="960.8442" y1="813.568" y2="813.568"/><text fill="#000000" font-family="sans-serif" font-size="11.2" lengthAdjust="spacing" textLength="61.3375" x="811.984" y="828.8539">+angle: float</text><text fill="#000000" font-family="sans-serif" font-size="11.2" lengthAdjust="spacing" textLength="73.15" x="811.984" y="843.7508">+segments: int</text><line style="stroke:#181818;stroke-width:0.4;" x1="807.984" x2="960.8442" y1="849.7618" y2="849.7618"/><text fill="#000000" font-family="sans-serif" font-size="11.2" lengthAdjust="spacing" textLength="114.2313" x="811.984" y="865.0477">+_execute(context): str</text></g><!--class MetalMaterial--><g class="entity" data-entity="MetalMaterial" data-source-line="133" data-uid="ent0022" id="entity_MetalMaterial"><rect fill="#F1F1F1" height="93.1563" rx="2" ry="2" style="stroke:#181818;stroke-width:0.4;" width="112.0133" x="797.184" y="1111.168"/><ellipse cx="817.8201" cy="1129.0008" fill="#DA70D6" rx="8.8" ry="8.8" style="stroke:#181818;stroke-width:0.8;"/><path d="M815.8576,1131.6383 L815.8576,1126.3133 Q815.4201,1126.3008 815.2076,1126.1133 Q815.0076,1125.9258 815.0076,1125.6258 Q815.0076,1125.3258 815.2201,1125.1383 Q815.4326,1124.9508 815.9201,1124.9508 L818.7701,1124.9508 Q819.4326,1124.9508 820.0701,1125.2008 Q820.7076,1125.4383 821.0951,1125.8258 Q821.3826,1126.1133 821.6951,1126.6133 Q822.0076,1127.1008 822.1701,1127.6008 Q822.3326,1128.0883 822.3326,1128.8008 L822.3326,1129.4508 Q822.3326,1130.3133 822.0326,1130.9883 Q821.7451,1131.6508 821.2701,1132.0758 Q820.7951,1132.4883 820.3826,1132.6883 Q819.7201,1133.0008 818.6576,1133.0008 L815.9201,1133.0008 Q815.4326,1133.0008 815.2201,1132.8133 Q815.0076,1132.6258 815.0076,1132.3133 Q815.0076,1132.0133 815.2201,1131.8258 Q815.4326,1131.6383 815.8576,1131.6383 Z M817.2201,1131.6383 L818.6701,1131.6383 Q819.4701,1131.6383 819.8826,1131.4008 Q820.4201,1131.1008 820.6951,1130.6383 Q820.9701,1130.1633 820.9701,1129.4133 L820.9701,1128.7633 Q820.9701,1128.1258 820.7201,1127.6383 Q820.3326,1126.8758 819.8451,1126.6008 Q819.3701,1126.3133 818.6576,1126.3133 L817.2201,1126.3133 L817.2201,1131.6383 Z " fill="#000000"/><text fill="#000000" font-family="sans-serif" font-size="9.6" font-style="italic" lengthAdjust="spacing" textLength="51.2344" x="838.933" y="1125.5274">&#171;dataclass&#187;</text><text fill="#000000" font-family="sans-serif" font-size="11.2" lengthAdjust="spacing" textLength="67.2219" x="830.9393" y="1140.0227">MetalMaterial</text><line style="stroke:#181818;stroke-width:0.4;" x1="797.984" x2="908.3973" y1="1146.8336" y2="1146.8336"/><text fill="#000000" font-family="sans-serif" font-size="11.2" lengthAdjust="spacing" textLength="33.3102" x="801.984" y="1162.1196">+id: int</text><text fill="#000000" font-family="sans-serif" font-size="11.2" lengthAdjust="spacing" textLength="53.2219" x="801.984" y="1177.0164">+name: str</text><text fill="#000000" font-family="sans-serif" font-size="11.2" lengthAdjust="spacing" textLength="102.4133" x="801.984" y="1191.9133">+price_per_m2: float</text><line style="stroke:#181818;stroke-width:0.4;" x1="797.984" x2="908.3973" y1="1197.9243" y2="1197.9243"/></g><!--class Product--><g class="entity" data-entity="Product" data-source-line="139" data-uid="ent0023" id="entity_Product"><rect fill="#F1F1F1" height="127.7813" rx="2" ry="2" style="stroke:#181818;stroke-width:0.4;" width="129.4203" x="993.184" y="927.168"/><ellipse cx="1035.1949" cy="939.968" fill="#A9DCDF" rx="8.8" ry="8.8" style="stroke:#181818;stroke-width:0.8;"/><path d="M1036.9449,941.3805 L1033.6324,941.3805 L1033.2949,942.2055 L1033.6324,942.2055 Q1034.1199,942.2055 1034.3324,942.393 Q1034.5449,942.5805 1034.5449,942.893 Q1034.5449,943.193 1034.3324,943.3805 Q1034.1199,943.568 1033.6324,943.568 L1031.7949,943.568 Q1031.3074,943.568 1031.1074,943.3805 Q1030.8949,943.193 1030.8949,942.8805 Q1030.8949,942.5805 1031.1199,942.393 Q1031.3324,942.193 1031.8324,942.2055 L1033.9699,936.8805 L1033.0824,936.8805 Q1032.5949,936.8805 1032.3824,936.693 Q1032.1699,936.5055 1032.1699,936.193 Q1032.1699,935.893 1032.3824,935.7055 Q1032.5949,935.518 1033.0824,935.518 L1036.0199,935.518 L1038.7324,942.2055 Q1039.2074,942.2055 1039.3574,942.318 Q1039.6699,942.5305 1039.6699,942.893 Q1039.6699,943.193 1039.4574,943.3805 Q1039.2574,943.568 1038.7699,943.568 L1036.9324,943.568 Q1036.4449,943.568 1036.2324,943.3805 Q1036.0199,943.193 1036.0199,942.8805 Q1036.0199,942.5805 1036.2324,942.393 Q1036.4449,942.2055 1036.9324,942.2055 L1037.2699,942.2055 L1036.9449,941.3805 Z M1036.3699,940.018 L1035.2824,937.318 L1034.1824,940.018 L1036.3699,940.018 Z " fill="#000000"/><text fill="#000000" font-family="sans-serif" font-size="11.2" font-style="italic" lengthAdjust="spacing" textLength="38.5984" x="1051.5949" y="944.6055">Product</text><line style="stroke:#181818;stroke-width:0.4;" x1="993.984" x2="1121.8043" y1="952.768" y2="952.768"/><text fill="#000000" font-family="sans-serif" font-size="11.2" lengthAdjust="spacing" textLength="102.3969" x="997.984" y="968.0539">+diameter_mm: float</text><text fill="#000000" font-family="sans-serif" font-size="11.2" lengthAdjust="spacing" textLength="119.8203" x="997.984" y="982.9508">+material: MetalMaterial</text><text fill="#000000" font-family="sans-serif" font-size="11.2" lengthAdjust="spacing" textLength="88.1016" x="997.984" y="997.8477">+has_salary: bool</text><line style="stroke:#181818;stroke-width:0.4;" x1="993.984" x2="1121.8043" y1="1003.8586" y2="1003.8586"/><text fill="#000000" font-family="sans-serif" font-size="11.2" font-style="italic" lengthAdjust="spacing" textLength="107.3953" x="997.984" y="1019.1446">+get_area_m2(): float</text><text fill="#000000" font-family="sans-serif" font-size="11.2" font-style="italic" lengthAdjust="spacing" textLength="93.0672" x="997.984" y="1034.0414">+get_salary(): float</text><text fill="#000000" font-family="sans-serif" font-size="11.2" lengthAdjust="spacing" textLength="83.732" x="997.984" y="1048.9383">+get_cost(): float</text></g><!--class Pipe--><g class="entity" data-entity="Pipe" data-source-line="148" data-uid="ent0024" id="entity_Pipe"><rect fill="#F1F1F1" height="53.2969" rx="2" ry="2" style="stroke:#181818;stroke-width:0.4;" width="98.9375" x="937.184" y="1130.768"/><ellipse cx="972.0985" cy="1143.568" fill="#ADD1B2" rx="8.8" ry="8.8" style="stroke:#181818;stroke-width:0.8;"/><path d="M974.311,1140.268 Q974.436,1140.093 974.586,1140.0055 Q974.736,1139.918 974.911,1139.918 Q975.211,1139.918 975.3985,1140.1305 Q975.586,1140.3305 975.586,1140.818 L975.586,1141.9805 Q975.586,1142.468 975.3985,1142.6805 Q975.211,1142.893 974.911,1142.893 Q974.636,1142.893 974.4735,1142.7305 Q974.311,1142.5805 974.2235,1142.168 Q974.186,1141.8805 974.036,1141.7305 Q973.7735,1141.4305 973.286,1141.2555 Q972.7985,1141.0805 972.2985,1141.0805 Q971.686,1141.0805 971.1735,1141.343 Q970.6735,1141.6055 970.2735,1142.2055 Q969.886,1142.8055 969.886,1143.6305 L969.886,1144.5055 Q969.886,1145.493 970.5985,1146.1555 Q971.311,1146.8055 972.586,1146.8055 Q973.336,1146.8055 973.861,1146.6055 Q974.1735,1146.4805 974.511,1146.1305 Q974.7235,1145.918 974.836,1145.8555 Q974.961,1145.793 975.1235,1145.793 Q975.386,1145.793 975.586,1146.0055 Q975.7985,1146.2055 975.7985,1146.4805 Q975.7985,1146.7555 975.5235,1147.0805 Q975.1235,1147.543 974.486,1147.8055 Q973.6235,1148.168 972.586,1148.168 Q971.3735,1148.168 970.411,1147.668 Q969.6235,1147.268 969.0735,1146.418 Q968.5235,1145.5555 968.5235,1144.5305 L968.5235,1143.6055 Q968.5235,1142.543 969.011,1141.6305 Q969.511,1140.7055 970.386,1140.218 Q971.261,1139.718 972.2485,1139.718 Q972.836,1139.718 973.3485,1139.8555 Q973.8735,1139.9805 974.311,1140.268 Z " fill="#000000"/><text fill="#000000" font-family="sans-serif" font-size="11.2" lengthAdjust="spacing" textLength="22.4164" x="988.3906" y="1148.2055">Pipe</text><line style="stroke:#181818;stroke-width:0.4;" x1="937.984" x2="1035.3215" y1="1156.368" y2="1156.368"/><text fill="#000000" font-family="sans-serif" font-size="11.2" lengthAdjust="spacing" textLength="89.3375" x="941.984" y="1171.6539">+length_mm: float</text><line style="stroke:#181818;stroke-width:0.4;" x1="937.984" x2="1035.3215" y1="1177.6649" y2="1177.6649"/></g><!--class Elbow--><g class="entity" data-entity="Elbow" data-source-line="152" data-uid="ent0025" id="entity_Elbow"><rect fill="#F1F1F1" height="68.1938" rx="2" ry="2" style="stroke:#181818;stroke-width:0.4;" width="95.8531" x="1064.384" y="1123.568"/><ellipse cx="1094.2708" cy="1136.368" fill="#ADD1B2" rx="8.8" ry="8.8" style="stroke:#181818;stroke-width:0.8;"/><path d="M1096.4833,1133.068 Q1096.6083,1132.893 1096.7583,1132.8055 Q1096.9083,1132.718 1097.0833,1132.718 Q1097.3833,1132.718 1097.5708,1132.9305 Q1097.7583,1133.1305 1097.7583,1133.618 L1097.7583,1134.7805 Q1097.7583,1135.268 1097.5708,1135.4805 Q1097.3833,1135.693 1097.0833,1135.693 Q1096.8083,1135.693 1096.6458,1135.5305 Q1096.4833,1135.3805 1096.3958,1134.968 Q1096.3583,1134.6805 1096.2083,1134.5305 Q1095.9458,1134.2305 1095.4583,1134.0555 Q1094.9708,1133.8805 1094.4708,1133.8805 Q1093.8583,1133.8805 1093.3458,1134.143 Q1092.8458,1134.4055 1092.4458,1135.0055 Q1092.0583,1135.6055 1092.0583,1136.4305 L1092.0583,1137.3055 Q1092.0583,1138.293 1092.7708,1138.9555 Q1093.4833,1139.6055 1094.7583,1139.6055 Q1095.5083,1139.6055 1096.0333,1139.4055 Q1096.3458,1139.2805 1096.6833,1138.9305 Q1096.8958,1138.718 1097.0083,1138.6555 Q1097.1333,1138.593 1097.2958,1138.593 Q1097.5583,1138.593 1097.7583,1138.8055 Q1097.9708,1139.0055 1097.9708,1139.2805 Q1097.9708,1139.5555 1097.6958,1139.8805 Q1097.2958,1140.343 1096.6583,1140.6055 Q1095.7958,1140.968 1094.7583,1140.968 Q1093.5458,1140.968 1092.5833,1140.468 Q1091.7958,1140.068 1091.2458,1139.218 Q1090.6958,1138.3555 1090.6958,1137.3305 L1090.6958,1136.4055 Q1090.6958,1135.343 1091.1833,1134.4305 Q1091.6833,1133.5055 1092.5583,1133.018 Q1093.4333,1132.518 1094.4208,1132.518 Q1095.0083,1132.518 1095.5208,1132.6555 Q1096.0458,1132.7805 1096.4833,1133.068 Z " fill="#000000"/><text fill="#000000" font-family="sans-serif" font-size="11.2" lengthAdjust="spacing" textLength="30.5047" x="1109.4456" y="1141.0055">Elbow</text><line style="stroke:#181818;stroke-width:0.4;" x1="1065.184" x2="1159.4371" y1="1149.168" y2="1149.168"/><text fill="#000000" font-family="sans-serif" font-size="11.2" lengthAdjust="spacing" textLength="86.2531" x="1069.184" y="1164.4539">+angle_deg: float</text><text fill="#000000" font-family="sans-serif" font-size="11.2" lengthAdjust="spacing" textLength="73.15" x="1069.184" y="1179.3508">+segments: int</text><line style="stroke:#181818;stroke-width:0.4;" x1="1065.184" x2="1159.4371" y1="1185.3618" y2="1185.3618"/></g><!--class AboutService--><g class="entity" data-entity="AboutService" data-source-line="159" data-uid="ent0027" id="entity_AboutService"><rect fill="#F1F1F1" height="83.0906" rx="2" ry="2" style="stroke:#181818;stroke-width:0.4;" width="140.0242" x="61.584" y="654.368"/><ellipse cx="95.0982" cy="667.168" fill="#ADD1B2" rx="8.8" ry="8.8" style="stroke:#181818;stroke-width:0.8;"/><path d="M97.3107,663.868 Q97.4357,663.693 97.5857,663.6055 Q97.7357,663.518 97.9107,663.518 Q98.2107,663.518 98.3982,663.7305 Q98.5857,663.9305 98.5857,664.418 L98.5857,665.5805 Q98.5857,666.068 98.3982,666.2805 Q98.2107,666.493 97.9107,666.493 Q97.6357,666.493 97.4732,666.3305 Q97.3107,666.1805 97.2232,665.768 Q97.1857,665.4805 97.0357,665.3305 Q96.7732,665.0305 96.2857,664.8555 Q95.7982,664.6805 95.2982,664.6805 Q94.6857,664.6805 94.1732,664.943 Q93.6732,665.2055 93.2732,665.8055 Q92.8857,666.4055 92.8857,667.2305 L92.8857,668.1055 Q92.8857,669.093 93.5982,669.7555 Q94.3107,670.4055 95.5857,670.4055 Q96.3357,670.4055 96.8607,670.2055 Q97.1732,670.0805 97.5107,669.7305 Q97.7232,669.518 97.8357,669.4555 Q97.9607,669.393 98.1232,669.393 Q98.3857,669.393 98.5857,669.6055 Q98.7982,669.8055 98.7982,670.0805 Q98.7982,670.3555 98.5232,670.6805 Q98.1232,671.143 97.4857,671.4055 Q96.6232,671.768 95.5857,671.768 Q94.3732,671.768 93.4107,671.268 Q92.6232,670.868 92.0732,670.018 Q91.5232,669.1555 91.5232,668.1305 L91.5232,667.2055 Q91.5232,666.143 92.0107,665.2305 Q92.5107,664.3055 93.3857,663.818 Q94.2607,663.318 95.2482,663.318 Q95.8357,663.318 96.3482,663.4555 Q96.8732,663.5805 97.3107,663.868 Z " fill="#000000"/><text fill="#000000" font-family="sans-serif" font-size="11.2" lengthAdjust="spacing" textLength="66.6148" x="111.0792" y="671.8055">AboutService</text><line style="stroke:#181818;stroke-width:0.4;" x1="62.384" x2="200.8082" y1="679.968" y2="679.968"/><text fill="#000000" font-family="sans-serif" font-size="11.2" lengthAdjust="spacing" textLength="106.7719" x="66.384" y="695.2539">+displayed_name: str</text><line style="stroke:#181818;stroke-width:0.4;" x1="62.384" x2="200.8082" y1="701.2649" y2="701.2649"/><text fill="#000000" font-family="sans-serif" font-size="11.2" lengthAdjust="spacing" textLength="123.5773" x="66.384" y="716.5508">+get_about_creator(): str</text><text fill="#000000" font-family="sans-serif" font-size="11.2" lengthAdjust="spacing" textLength="130.4242" x="66.384" y="731.4477">+get_about_program(): str</text></g><!--class GetAboutCommand--><g class="entity" data-entity="GetAboutCommand" data-source-line="165" data-uid="ent0028" id="entity_GetAboutCommand"><rect fill="#F1F1F1" height="53.2969" rx="2" ry="2" style="stroke:#181818;stroke-width:0.4;" width="124.5844" x="344.384" y="514.768"/><ellipse cx="356.384" cy="527.568" fill="#A9DCDF" rx="8.8" ry="8.8" style="stroke:#181818;stroke-width:0.8;"/><path d="M358.134,528.9805 L354.8215,528.9805 L354.484,529.8055 L354.8215,529.8055 Q355.309,529.8055 355.5215,529.993 Q355.734,530.1805 355.734,530.493 Q355.734,530.793 355.5215,530.9805 Q355.309,531.168 354.8215,531.168 L352.984,531.168 Q352.4965,531.168 352.2965,530.9805 Q352.084,530.793 352.084,530.4805 Q352.084,530.1805 352.309,529.993 Q352.5215,529.793 353.0215,529.8055 L355.159,524.4805 L354.2715,524.4805 Q353.784,524.4805 353.5715,524.293 Q353.359,524.1055 353.359,523.793 Q353.359,523.493 353.5715,523.3055 Q353.784,523.118 354.2715,523.118 L357.209,523.118 L359.9215,529.8055 Q360.3965,529.8055 360.5465,529.918 Q360.859,530.1305 360.859,530.493 Q360.859,530.793 360.6465,530.9805 Q360.4465,531.168 359.959,531.168 L358.1215,531.168 Q357.634,531.168 357.4215,530.9805 Q357.209,530.793 357.209,530.4805 Q357.209,530.1805 357.4215,529.993 Q357.634,529.8055 358.1215,529.8055 L358.459,529.8055 L358.134,528.9805 Z M357.559,527.618 L356.4715,524.918 L355.3715,527.618 L357.559,527.618 Z " fill="#000000"/><text fill="#000000" font-family="sans-serif" font-size="11.2" font-style="italic" lengthAdjust="spacing" textLength="98.9844" x="367.584" y="532.2055">GetAboutCommand</text><line style="stroke:#181818;stroke-width:0.4;" x1="345.184" x2="468.1684" y1="540.368" y2="540.368"/><text fill="#000000" font-family="sans-serif" font-size="11.2" lengthAdjust="spacing" textLength="114.8547" x="349.184" y="555.6539">+service: AboutService</text><line style="stroke:#181818;stroke-width:0.4;" x1="345.184" x2="468.1684" y1="561.6649" y2="561.6649"/></g><!--class GetAboutCreatorCommand--><g class="entity" data-entity="GetAboutCreatorCommand" data-source-line="169" data-uid="ent0029" id="entity_GetAboutCreatorCommand"><rect fill="#F1F1F1" height="53.2969" rx="2" ry="2" style="stroke:#181818;stroke-width:0.4;" width="161.9305" x="229.984" y="669.168"/><ellipse cx="241.984" cy="681.968" fill="#ADD1B2" rx="8.8" ry="8.8" style="stroke:#181818;stroke-width:0.8;"/><path d="M244.1965,678.668 Q244.3215,678.493 244.4715,678.4055 Q244.6215,678.318 244.7965,678.318 Q245.0965,678.318 245.284,678.5305 Q245.4715,678.7305 245.4715,679.218 L245.4715,680.3805 Q245.4715,680.868 245.284,681.0805 Q245.0965,681.293 244.7965,681.293 Q244.5215,681.293 244.359,681.1305 Q244.1965,680.9805 244.109,680.568 Q244.0715,680.2805 243.9215,680.1305 Q243.659,679.8305 243.1715,679.6555 Q242.684,679.4805 242.184,679.4805 Q241.5715,679.4805 241.059,679.743 Q240.559,680.0055 240.159,680.6055 Q239.7715,681.2055 239.7715,682.0305 L239.7715,682.9055 Q239.7715,683.893 240.484,684.5555 Q241.1965,685.2055 242.4715,685.2055 Q243.2215,685.2055 243.7465,685.0055 Q244.059,684.8805 244.3965,684.5305 Q244.609,684.318 244.7215,684.2555 Q244.8465,684.193 245.009,684.193 Q245.2715,684.193 245.4715,684.4055 Q245.684,684.6055 245.684,684.8805 Q245.684,685.1555 245.409,685.4805 Q245.009,685.943 244.3715,686.2055 Q243.509,686.568 242.4715,686.568 Q241.259,686.568 240.2965,686.068 Q239.509,685.668 238.959,684.818 Q238.409,683.9555 238.409,682.9305 L238.409,682.0055 Q238.409,680.943 238.8965,680.0305 Q239.3965,679.1055 240.2715,678.618 Q241.1465,678.118 242.134,678.118 Q242.7215,678.118 243.234,678.2555 Q243.759,678.3805 244.1965,678.668 Z " fill="#000000"/><text fill="#000000" font-family="sans-serif" font-size="11.2" lengthAdjust="spacing" textLength="136.3305" x="253.184" y="686.6055">GetAboutCreatorCommand</text><line style="stroke:#181818;stroke-width:0.4;" x1="230.784" x2="391.1145" y1="694.768" y2="694.768"/><line style="stroke:#181818;stroke-width:0.4;" x1="230.784" x2="391.1145" y1="701.168" y2="701.168"/><text fill="#000000" font-family="sans-serif" font-size="11.2" lengthAdjust="spacing" textLength="114.2313" x="234.784" y="716.4539">+_execute(context): str</text></g><!--class GetAboutProgramCommand--><g class="entity" data-entity="GetAboutProgramCommand" data-source-line="173" data-uid="ent0030" id="entity_GetAboutProgramCommand"><rect fill="#F1F1F1" height="53.2969" rx="2" ry="2" style="stroke:#181818;stroke-width:0.4;" width="167.5305" x="419.984" y="669.168"/><ellipse cx="431.984" cy="681.968" fill="#ADD1B2" rx="8.8" ry="8.8" style="stroke:#181818;stroke-width:0.8;"/><path d="M434.1965,678.668 Q434.3215,678.493 434.4715,678.4055 Q434.6215,678.318 434.7965,678.318 Q435.0965,678.318 435.284,678.5305 Q435.4715,678.7305 435.4715,679.218 L435.4715,680.3805 Q435.4715,680.868 435.284,681.0805 Q435.0965,681.293 434.7965,681.293 Q434.5215,681.293 434.359,681.1305 Q434.1965,680.9805 434.109,680.568 Q434.0715,680.2805 433.9215,680.1305 Q433.659,679.8305 433.1715,679.6555 Q432.684,679.4805 432.184,679.4805 Q431.5715,679.4805 431.059,679.743 Q430.559,680.0055 430.159,680.6055 Q429.7715,681.2055 429.7715,682.0305 L429.7715,682.9055 Q429.7715,683.893 430.484,684.5555 Q431.1965,685.2055 432.4715,685.2055 Q433.2215,685.2055 433.7465,685.0055 Q434.059,684.8805 434.3965,684.5305 Q434.609,684.318 434.7215,684.2555 Q434.8465,684.193 435.009,684.193 Q435.2715,684.193 435.4715,684.4055 Q435.684,684.6055 435.684,684.8805 Q435.684,685.1555 435.409,685.4805 Q435.009,685.943 434.3715,686.2055 Q433.509,686.568 432.4715,686.568 Q431.259,686.568 430.2965,686.068 Q429.509,685.668 428.959,684.818 Q428.409,683.9555 428.409,682.9305 L428.409,682.0055 Q428.409,680.943 428.8965,680.0305 Q429.3965,679.1055 430.2715,678.618 Q431.1465,678.118 432.134,678.118 Q432.7215,678.118 433.234,678.2555 Q433.759,678.3805 434.1965,678.668 Z " fill="#000000"/><text fill="#000000" font-family="sans-serif" font-size="11.2" lengthAdjust="spacing" textLength="141.9305" x="443.184" y="686.6055">GetAboutProgramCommand</text><line style="stroke:#181818;stroke-width:0.4;" x1="420.784" x2="586.7145" y1="694.768" y2="694.768"/><line style="stroke:#181818;stroke-width:0.4;" x1="420.784" x2="586.7145" y1="701.168" y2="701.168"/><text fill="#000000" font-family="sans-serif" font-size="11.2" lengthAdjust="spacing" textLength="114.2313" x="424.784" y="716.4539">+_execute(context): str</text></g><!--class ConsoleViewer--><g class="entity" data-entity="ConsoleViewer" data-source-line="179" data-uid="ent0032" id="entity_ConsoleViewer"><rect fill="#F1F1F1" height="97.9875" rx="2" ry="2" style="stroke:#181818;stroke-width:0.4;" width="179.8914" x="2510.384" y="178.368"/><ellipse cx="2559.2664" cy="191.168" fill="#ADD1B2" rx="8.8" ry="8.8" style="stroke:#181818;stroke-width:0.8;"/><path d="M2561.4789,187.868 Q2561.6039,187.693 2561.7539,187.6055 Q2561.9039,187.518 2562.0789,187.518 Q2562.3789,187.518 2562.5664,187.7305 Q2562.7539,187.9305 2562.7539,188.418 L2562.7539,189.5805 Q2562.7539,190.068 2562.5664,190.2805 Q2562.3789,190.493 2562.0789,190.493 Q2561.8039,190.493 2561.6414,190.3305 Q2561.4789,190.1805 2561.3914,189.768 Q2561.3539,189.4805 2561.2039,189.3305 Q2560.9414,189.0305 2560.4539,188.8555 Q2559.9664,188.6805 2559.4664,188.6805 Q2558.8539,188.6805 2558.3414,188.943 Q2557.8414,189.2055 2557.4414,189.8055 Q2557.0539,190.4055 2557.0539,191.2305 L2557.0539,192.1055 Q2557.0539,193.093 2557.7664,193.7555 Q2558.4789,194.4055 2559.7539,194.4055 Q2560.5039,194.4055 2561.0289,194.2055 Q2561.3414,194.0805 2561.6789,193.7305 Q2561.8914,193.518 2562.0039,193.4555 Q2562.1289,193.393 2562.2914,193.393 Q2562.5539,193.393 2562.7539,193.6055 Q2562.9664,193.8055 2562.9664,194.0805 Q2562.9664,194.3555 2562.6914,194.6805 Q2562.2914,195.143 2561.6539,195.4055 Q2560.7914,195.768 2559.7539,195.768 Q2558.5414,195.768 2557.5789,195.268 Q2556.7914,194.868 2556.2414,194.018 Q2555.6914,193.1555 2555.6914,192.1305 L2555.6914,191.2055 Q2555.6914,190.143 2556.1789,189.2305 Q2556.6789,188.3055 2557.5539,187.818 Q2558.4289,187.318 2559.4164,187.318 Q2560.0039,187.318 2560.5164,187.4555 Q2561.0414,187.5805 2561.4789,187.868 Z " fill="#000000"/><text fill="#000000" font-family="sans-serif" font-size="11.2" lengthAdjust="spacing" textLength="75.3266" x="2575.6664" y="195.8055">ConsoleViewer</text><line style="stroke:#181818;stroke-width:0.4;" x1="2511.184" x2="2689.4754" y1="203.968" y2="203.968"/><text fill="#000000" font-family="sans-serif" font-size="11.2" lengthAdjust="spacing" textLength="107.4008" x="2515.184" y="219.2539">+context: AppContext</text><line style="stroke:#181818;stroke-width:0.4;" x1="2511.184" x2="2689.4754" y1="225.2649" y2="225.2649"/><text fill="#000000" font-family="sans-serif" font-size="11.2" lengthAdjust="spacing" textLength="170.2914" x="2515.184" y="240.5508">+handle_event(event: Event): void</text><text fill="#000000" font-family="sans-serif" font-size="11.2" lengthAdjust="spacing" textLength="142.8656" x="2515.184" y="255.4477">+show_service_menu(): void</text><text fill="#000000" font-family="sans-serif" font-size="11.2" lengthAdjust="spacing" textLength="144.7359" x="2515.184" y="270.3446">+execute_command(...): void</text></g><!--class TkinterViewer--><g class="entity" data-entity="TkinterViewer" data-source-line="186" data-uid="ent0033" id="entity_TkinterViewer"><rect fill="#F1F1F1" height="83.0906" rx="2" ry="2" style="stroke:#181818;stroke-width:0.4;" width="179.8914" x="2718.384" y="185.568"/><ellipse cx="2770.6981" cy="198.368" fill="#ADD1B2" rx="8.8" ry="8.8" style="stroke:#181818;stroke-width:0.8;"/><path d="M2772.9106,195.068 Q2773.0356,194.893 2773.1856,194.8055 Q2773.3356,194.718 2773.5106,194.718 Q2773.8106,194.718 2773.9981,194.9305 Q2774.1856,195.1305 2774.1856,195.618 L2774.1856,196.7805 Q2774.1856,197.268 2773.9981,197.4805 Q2773.8106,197.693 2773.5106,197.693 Q2773.2356,197.693 2773.0731,197.5305 Q2772.9106,197.3805 2772.8231,196.968 Q2772.7856,196.6805 2772.6356,196.5305 Q2772.3731,196.2305 2771.8856,196.0555 Q2771.3981,195.8805 2770.8981,195.8805 Q2770.2856,195.8805 2769.7731,196.143 Q2769.2731,196.4055 2768.8731,197.0055 Q2768.4856,197.6055 2768.4856,198.4305 L2768.4856,199.3055 Q2768.4856,200.293 2769.1981,200.9555 Q2769.9106,201.6055 2771.1856,201.6055 Q2771.9356,201.6055 2772.4606,201.4055 Q2772.7731,201.2805 2773.1106,200.9305 Q2773.3231,200.718 2773.4356,200.6555 Q2773.5606,200.593 2773.7231,200.593 Q2773.9856,200.593 2774.1856,200.8055 Q2774.3981,201.0055 2774.3981,201.2805 Q2774.3981,201.5555 2774.1231,201.8805 Q2773.7231,202.343 2773.0856,202.6055 Q2772.2231,202.968 2771.1856,202.968 Q2769.9731,202.968 2769.0106,202.468 Q2768.2231,202.068 2767.6731,201.218 Q2767.1231,200.3555 2767.1231,199.3305 L2767.1231,198.4055 Q2767.1231,197.343 2767.6106,196.4305 Q2768.1106,195.5055 2768.9856,195.018 Q2769.8606,194.518 2770.8481,194.518 Q2771.4356,194.518 2771.9481,194.6555 Q2772.4731,194.7805 2772.9106,195.068 Z " fill="#000000"/><text fill="#000000" font-family="sans-serif" font-size="11.2" lengthAdjust="spacing" textLength="68.4633" x="2787.0981" y="203.0055">TkinterViewer</text><line style="stroke:#181818;stroke-width:0.4;" x1="2719.184" x2="2897.4754" y1="211.168" y2="211.168"/><text fill="#000000" font-family="sans-serif" font-size="11.2" lengthAdjust="spacing" textLength="107.4008" x="2723.184" y="226.4539">+context: AppContext</text><line style="stroke:#181818;stroke-width:0.4;" x1="2719.184" x2="2897.4754" y1="232.4649" y2="232.4649"/><text fill="#000000" font-family="sans-serif" font-size="11.2" lengthAdjust="spacing" textLength="170.2914" x="2723.184" y="247.7508">+handle_event(event: Event): void</text><text fill="#000000" font-family="sans-serif" font-size="11.2" lengthAdjust="spacing" textLength="96.2008" x="2723.184" y="262.6477">+update_gui(): void</text></g><!--reverse link Service to MetalCalcService--><g class="link" data-entity-1="Service" data-entity-2="MetalCalcService" data-source-line="194" data-uid="lnk34" id="link_Service_MetalCalcService"><path codeLine="194" d="M1210.1848,228.0713 C892.6248,231.4073 217.232,256.624 48.384,411.168 C4.8,451.056 18.784,481.688 18.784,540.768 C18.784,540.768 18.784,540.768 18.784,830.368 C18.784,903.056 513.528,958.672 741.088,980.408" fill="none" id="Service-backto-MetalCalcService" style="stroke:#181818;stroke-width:0.8;"/><polygon fill="none" points="1224.584,227.92,1210.1344,223.2715,1210.2352,232.871,1224.584,227.92" style="stroke:#181818;stroke-width:0.8;"/></g><!--reverse link Service to AboutService--><g class="link" data-entity-1="Service" data-entity-2="AboutService" data-source-line="195" data-uid="lnk35" id="link_Service_AboutService"><path codeLine="195" d="M1210.3291,242.1136 C952.6571,265.1376 476.688,318.568 330.784,411.168 C237.352,470.464 175.416,590.952 147.904,654.24" fill="none" id="Service-backto-AboutService" style="stroke:#181818;stroke-width:0.8;"/><polygon fill="none" points="1224.672,240.832,1209.9019,237.3326,1210.7563,246.8945,1224.672,240.832" style="stroke:#181818;stroke-width:0.8;"/></g><!--reverse link Command to CalculateMetalCommand--><g class="link" data-entity-1="Command" data-entity-2="CalculateMetalCommand" data-source-line="197" data-uid="lnk36" id="link_Command_CalculateMetalCommand"><path codeLine="197" d="M1647.7309,294.9189 C1623.4429,324.2229 1599.096,346.76 1561.184,365.568 C1552.408,369.92 1220.848,407.992 1211.584,411.168 C1151.144,431.888 1088.96,470.2 1046.048,499.816" fill="none" id="Command-backto-CalculateMetalCommand" style="stroke:#181818;stroke-width:0.8;"/><polygon fill="none" points="1656.92,283.832,1644.0352,291.8559,1651.4265,297.982,1656.92,283.832" style="stroke:#181818;stroke-width:0.8;"/></g><!--reverse link CalculateMetalCommand to CalculateMetalRoundCommand--><g class="link" data-entity-1="CalculateMetalCommand" data-entity-2="CalculateMetalRoundCommand" data-source-line="198" data-uid="lnk37" id="link_CalculateMetalCommand_CalculateMetalRoundCommand"><path codeLine="198" d="M949.4797,594.6101 C927.9597,621.8421 909.256,645.488 890.664,669.016" fill="none" id="CalculateMetalCommand-backto-CalculateMetalRoundCommand" style="stroke:#181818;stroke-width:0.8;"/><polygon fill="none" points="958.408,583.312,945.7137,591.634,953.2458,597.5861,958.408,583.312" style="stroke:#181818;stroke-width:0.8;"/></g><!--reverse link CalculateMetalRoundCommand to CalculatePipeCommand--><g class="link" data-entity-1="CalculateMetalRoundCommand" data-entity-2="CalculatePipeCommand" data-source-line="199" data-uid="lnk38" id="link_CalculateMetalRoundCommand_CalculatePipeCommand"><path codeLine="199" d="M826.3656,731.8762 C800.5096,752.6842 775.328,772.952 747.36,795.464" fill="none" id="CalculateMetalRoundCommand-backto-CalculatePipeCommand" style="stroke:#181818;stroke-width:0.8;"/><polygon fill="none" points="837.584,722.848,823.3562,728.1367,829.375,735.6156,837.584,722.848" style="stroke:#181818;stroke-width:0.8;"/></g><!--reverse link CalculateMetalRoundCommand to CalculateElbowCommand--><g class="link" data-entity-1="CalculateMetalRoundCommand" data-entity-2="CalculateElbowCommand" data-source-line="200" data-uid="lnk39" id="link_CalculateMetalRoundCommand_CalculateElbowCommand"><path codeLine="200" d="M874.3931,737.1631 C876.4171,755.7231 877.616,766.712 879.928,787.928" fill="none" id="CalculateMetalRoundCommand-backto-CalculateElbowCommand" style="stroke:#181818;stroke-width:0.8;"/><polygon fill="none" points="872.832,722.848,869.6214,737.6835,879.1648,736.6428,872.832,722.848" style="stroke:#181818;stroke-width:0.8;"/></g><!--reverse link Command to GetMaterialsCommand--><g class="link" data-entity-1="Command" data-entity-2="GetMaterialsCommand" data-source-line="201" data-uid="lnk40" id="link_Command_GetMaterialsCommand"><path codeLine="201" d="M1632.3315,293.9756 C1607.5955,319.0716 1588.056,338.768 1561.184,365.568 C1393.256,533.04 1189.232,732.128 1116.944,802.528" fill="none" id="Command-backto-GetMaterialsCommand" style="stroke:#181818;stroke-width:0.8;"/><polygon fill="none" points="1642.44,283.72,1628.9129,290.6061,1635.75,297.3451,1642.44,283.72" style="stroke:#181818;stroke-width:0.8;"/></g><!--reverse link Command to GetAboutCommand--><g class="link" data-entity-1="Command" data-entity-2="GetAboutCommand" data-source-line="203" data-uid="lnk41" id="link_Command_GetAboutCommand"><path codeLine="203" d="M1649.5971,294.837 C1625.4051,324.861 1600.44,348.048 1561.184,365.568 C1513.36,386.912 669.656,395.808 619.584,411.168 C548.872,432.864 477.68,483.4 438.2,514.568" fill="none" id="Command-backto-GetAboutCommand" style="stroke:#181818;stroke-width:0.8;"/><polygon fill="none" points="1658.632,283.624,1645.8594,291.8253,1653.3347,297.8486,1658.632,283.624" style="stroke:#181818;stroke-width:0.8;"/></g><!--reverse link GetAboutCommand to GetAboutCreatorCommand--><g class="link" data-entity-1="GetAboutCommand" data-entity-2="GetAboutCreatorCommand" data-source-line="204" data-uid="lnk42" id="link_GetAboutCommand_GetAboutCreatorCommand"><path codeLine="204" d="M387.6878,581.2396 C378.7118,599.0796 372.472,610.208 359.584,630.368 C351.16,643.536 340.872,657.472 331.912,669.024" fill="none" id="GetAboutCommand-backto-GetAboutCreatorCommand" style="stroke:#181818;stroke-width:0.8;"/><polygon fill="none" points="394.16,568.376,383.4,579.0822,391.9757,583.3969,394.16,568.376" style="stroke:#181818;stroke-width:0.8;"/></g><!--reverse link GetAboutCommand to GetAboutProgramCommand--><g class="link" data-entity-1="GetAboutCommand" data-entity-2="GetAboutProgramCommand" data-source-line="205" data-uid="lnk43" id="link_GetAboutCommand_GetAboutProgramCommand"><path codeLine="205" d="M431.1287,580.7974 C448.9127,608.8774 469.232,640.952 487,668.992" fill="none" id="GetAboutCommand-backto-GetAboutProgramCommand" style="stroke:#181818;stroke-width:0.8;"/><polygon fill="none" points="423.424,568.632,427.0736,583.3656,435.1839,578.2291,423.424,568.632" style="stroke:#181818;stroke-width:0.8;"/></g><!--reverse link Application to AppContext--><g class="link" data-entity-1="Application" data-entity-2="AppContext" data-source-line="207" data-uid="lnk44" id="link_Application_AppContext"><path codeLine="207" d="M3057.3211,315.5103 C3044.3931,380.2863 3028.536,459.8 3019.032,507.432" fill="none" id="Application-backto-AppContext" style="stroke:#181818;stroke-width:0.8;"/><polygon fill="none" points="3059.2,306.096,3055.1224,310.1769,3057.3211,315.5103,3061.3987,311.4295,3059.2,306.096" style="stroke:#181818;stroke-width:0.8;"/></g><!--reverse link AppContext to EventDispatcher--><g class="link" data-entity-1="AppContext" data-entity-2="EventDispatcher" data-source-line="208" data-uid="lnk45" id="link_AppContext_EventDispatcher"><path codeLine="208" d="M3004.6435,498.1108 C2996.6515,462.3268 2980.36,416.352 2940.384,389.568 C2858.44,334.672 2585.008,410.464 2497.184,365.568 C2468.056,350.68 2443.92,324.36 2425.664,298.704" fill="none" id="AppContext-backto-EventDispatcher" style="stroke:#181818;stroke-width:0.8;"/><polygon fill="none" points="3006.736,507.48,3008.8128,502.0979,3004.6435,498.1108,3002.5667,503.4929,3006.736,507.48" style="stroke:#181818;stroke-width:0.8;"/></g><!--reverse link EventDispatcher to Event--><g class="link" data-entity-1="EventDispatcher" data-entity-2="Event" data-source-line="209" data-uid="lnk46" id="link_EventDispatcher_Event"><path codeLine="209" d="M2393.7762,308.115 C2400.1122,373.339 2408.328,457.856 2413.136,507.376" fill="none" id="EventDispatcher-backto-Event" style="stroke:#181818;stroke-width:0.8;"/><polygon fill="none" points="2392.848,298.56,2390.1271,303.6469,2393.7762,308.115,2396.4971,303.0281,2392.848,298.56" style="stroke:#181818;stroke-width:0.8;"/></g><!--reverse link Service to AppContext--><g class="link" data-entity-1="Service" data-entity-2="AppContext" data-source-line="211" data-uid="lnk47" id="link_Service_AppContext"><path codeLine="211" d="M1445.3444,290.2172 C1477.5524,320.4412 1514.52,348.472 1561.184,365.568 C1630.008,390.776 2147.224,385.168 2220.384,389.568 C2335.064,396.456 2364.576,392.776 2477.984,411.168 C2647.376,438.64 2842.352,491.432 2943.48,520.44" fill="none" id="Service-backto-AppContext" style="stroke:#181818;stroke-width:0.8;"/><polygon fill="none" points="1438.344,283.648,1439.6545,289.2661,1445.3444,290.2172,1444.0339,284.5991,1438.344,283.648" style="stroke:#181818;stroke-width:0.8;"/></g><!--link Command to AppContext--><g class="link" data-entity-1="Command" data-entity-2="AppContext" data-source-line="212" data-uid="lnk48" id="link_Command_AppContext"><path codeLine="212" d="M1735.664,283.792 C1759.824,313.864 1793.824,348.264 1833.184,365.568 C1898.816,394.424 2407.32,377.472 2477.984,389.568 C2500.376,393.4 2505,398.328 2526.784,404.768 C2674.76,448.52 2844.5202,495.2366 2938.8162,520.8766" fill="none" id="Command-to-AppContext" style="stroke:#181818;stroke-width:0.8;stroke-dasharray:5.6,5.6;"/><polygon fill="#181818" points="2943.448,522.136,2937.3399,517.159,2939.5881,521.0865,2935.6606,523.3347,2943.448,522.136" style="stroke:#181818;stroke-width:0.8;"/><text fill="#000000" font-family="sans-serif" font-size="10.4" lengthAdjust="spacing" textLength="21.968" x="2527.584" y="401.5907">uses</text></g><!--link Application to Command--><g class="link" data-entity-1="Application" data-entity-2="Command" data-source-line="213" data-uid="lnk49" id="link_Application_Command"><path codeLine="213" d="M3022.216,148.328 C2994.024,113.272 2955.944,75.704 2911.584,56.768 C2801.384,9.72 1941.152,4.8 1833.184,56.768 C1784.416,80.24 1750.0853,126.5009 1727.1653,166.4369" fill="none" id="Application-to-Command" style="stroke:#181818;stroke-width:0.8;stroke-dasharray:5.6,5.6;"/><polygon fill="#181818" points="1724.776,170.6,1731.1353,165.9482,1726.7671,167.1308,1725.5845,162.7625,1724.776,170.6" style="stroke:#181818;stroke-width:0.8;"/><text fill="#000000" font-family="sans-serif" font-size="10.4" lengthAdjust="spacing" textLength="41.6254" x="2360.384" y="26.3907">executes</text></g><!--reverse link MetalCalcService to MetalMaterial--><g class="link" data-entity-1="MetalCalcService" data-entity-2="MetalMaterial" data-source-line="215" data-uid="lnk50" id="link_MetalCalcService_MetalMaterial"><path codeLine="215" d="M853.184,1072.176 C853.184,1088.6 853.184,1096.064 853.184,1111.08" fill="none" id="MetalCalcService-backto-MetalMaterial" style="stroke:#181818;stroke-width:0.8;"/><polygon fill="none" points="853.184,1062.576,849.984,1067.376,853.184,1072.176,856.384,1067.376,853.184,1062.576" style="stroke:#181818;stroke-width:0.8;"/></g><!--reverse link CalculateMetalCommand to MetalCalcService--><g class="link" data-entity-1="CalculateMetalCommand" data-entity-2="MetalCalcService" data-source-line="216" data-uid="lnk51" id="link_CalculateMetalCommand_MetalCalcService"><path codeLine="216" d="M999.5334,592.7674 C1009.1254,657.2074 1018.632,775.392 975.584,871.168 C967.68,888.752 955.896,905.096 942.72,919.688" fill="none" id="CalculateMetalCommand-backto-MetalCalcService" style="stroke:#181818;stroke-width:0.8;"/><polygon fill="none" points="998.12,583.272,995.6616,588.4908,999.5334,592.7674,1001.9918,587.5486,998.12,583.272" style="stroke:#181818;stroke-width:0.8;"/></g><!--reverse link GetAboutCommand to AboutService--><g class="link" data-entity-1="GetAboutCommand" data-entity-2="AboutService" data-source-line="217" data-uid="lnk52" id="link_GetAboutCommand_AboutService"><path codeLine="217" d="M363.7598,573.9498 C337.6318,592.5818 308.512,611.952 273.984,630.368 C249.512,643.424 241.688,643.016 216.384,654.368 C211.616,656.504 206.712,658.752 201.784,661.032" fill="none" id="GetAboutCommand-backto-AboutService" style="stroke:#181818;stroke-width:0.8;"/><polygon fill="none" points="371.576,568.376,365.81,568.5575,363.7598,573.9498,369.5258,573.7683,371.576,568.376" style="stroke:#181818;stroke-width:0.8;"/></g><!--reverse link GetMaterialsCommand to MetalCalcService--><g class="link" data-entity-1="GetMaterialsCommand" data-entity-2="MetalCalcService" data-source-line="218" data-uid="lnk53" id="link_GetMaterialsCommand_MetalCalcService"><path codeLine="218" d="M1046.3906,862.0296 C1029.4626,874.2056 1016.704,883.2 997.984,895.968 C986.576,903.744 974.6,911.776 962.616,919.72" fill="none" id="GetMaterialsCommand-backto-MetalCalcService" style="stroke:#181818;stroke-width:0.8;"/><polygon fill="none" points="1054.184,856.424,1048.4188,856.629,1046.3906,862.0296,1052.1559,861.8246,1054.184,856.424" style="stroke:#181818;stroke-width:0.8;"/></g><!--reverse link CalculatePipeCommand to MetalCalcService--><g class="link" data-entity-1="CalculatePipeCommand" data-entity-2="MetalCalcService" data-source-line="219" data-uid="lnk54" id="link_CalculatePipeCommand_MetalCalcService"><path codeLine="219" d="M743.34,870.9767 C758.348,887.2887 770.48,900.472 788.408,919.96" fill="none" id="CalculatePipeCommand-backto-MetalCalcService" style="stroke:#181818;stroke-width:0.8;"/><polygon fill="none" points="736.84,863.912,737.7351,869.611,743.34,870.9767,742.4449,865.2777,736.84,863.912" style="stroke:#181818;stroke-width:0.8;"/></g><!--reverse link CalculateElbowCommand to MetalCalcService--><g class="link" data-entity-1="CalculateElbowCommand" data-entity-2="MetalCalcService" data-source-line="220" data-uid="lnk55" id="link_CalculateElbowCommand_MetalCalcService"><path codeLine="220" d="M874.5536,880.7903 C871.6816,895.5103 870.192,903.144 866.976,919.656" fill="none" id="CalculateElbowCommand-backto-MetalCalcService" style="stroke:#181818;stroke-width:0.8;"/><polygon fill="none" points="876.392,871.368,872.332,875.4664,874.5536,880.7903,878.6136,876.692,876.392,871.368" style="stroke:#181818;stroke-width:0.8;"/></g><!--reverse link Product to Pipe--><g class="link" data-entity-1="Product" data-entity-2="Pipe" data-source-line="222" data-uid="lnk56" id="link_Product_Pipe"><path codeLine="222" d="M1024.9471,1068.436 C1013.6191,1094.668 1006.808,1110.424 998.056,1130.68" fill="none" id="Product-backto-Pipe" style="stroke:#181818;stroke-width:0.8;"/><polygon fill="none" points="1030.656,1055.216,1020.5404,1066.533,1029.3538,1070.339,1030.656,1055.216" style="stroke:#181818;stroke-width:0.8;"/></g><!--reverse link Product to Elbow--><g class="link" data-entity-1="Product" data-entity-2="Elbow" data-source-line="223" data-uid="lnk57" id="link_Product_Elbow"><path codeLine="223" d="M1083.3753,1068.8911 C1091.0393,1092.1231 1094.912,1103.84 1101.376,1123.416" fill="none" id="Product-backto-Elbow" style="stroke:#181818;stroke-width:0.8;"/><polygon fill="none" points="1078.864,1055.216,1078.8169,1070.3949,1087.9336,1067.3873,1078.864,1055.216" style="stroke:#181818;stroke-width:0.8;"/></g><!--reverse link Product to MetalMaterial--><g class="link" data-entity-1="Product" data-entity-2="MetalMaterial" data-source-line="224" data-uid="lnk58" id="link_Product_MetalMaterial"><path codeLine="224" d="M985.8363,1057.2429 C981.2843,1061.1309 984.04,1058.712 979.584,1062.368 C957.128,1080.768 931.6,1100.12 909.392,1116.472" fill="none" id="Product-backto-MetalMaterial" style="stroke:#181818;stroke-width:0.8;"/><polygon fill="none" points="993.136,1051.008,987.4078,1051.6922,985.8363,1057.2429,991.5644,1056.5587,993.136,1051.008" style="stroke:#181818;stroke-width:0.8;"/></g><!--reverse link Parameter to Validator--><g class="link" data-entity-1="Parameter" data-entity-2="Validator" data-source-line="226" data-uid="lnk59" id="link_Parameter_Validator"><path codeLine="226" d="M2181.6858,614.3091 C2171.2458,636.4771 2164.168,651.48 2155.952,668.92" fill="none" id="Parameter-backto-Validator" style="stroke:#181818;stroke-width:0.8;"/><polygon fill="none" points="2185.776,605.624,2180.8359,608.6031,2181.6858,614.3091,2186.6259,611.3299,2185.776,605.624" style="stroke:#181818;stroke-width:0.8;"/></g><!--reverse link ParameterSchema to Validator--><g class="link" data-entity-1="ParameterSchema" data-entity-2="Validator" data-source-line="227" data-uid="lnk60" id="link_ParameterSchema_Validator"><path codeLine="227" d="M2139.823,315.6205 C2136.447,348.0845 2134.04,376.616 2132.384,411.168 C2128.248,497.472 2127.016,519.336 2132.384,605.568 C2133.72,627 2136.832,651.16 2139.44,668.984" fill="none" id="ParameterSchema-backto-Validator" style="stroke:#181818;stroke-width:0.8;"/><polygon fill="none" points="2140.816,306.072,2137.1367,310.5153,2139.823,315.6205,2143.5024,311.1772,2140.816,306.072" style="stroke:#181818;stroke-width:0.8;"/></g><!--link ParameterSchema to Parameter--><g class="link" data-entity-1="ParameterSchema" data-entity-2="Parameter" data-source-line="228" data-uid="lnk61" id="link_ParameterSchema_Parameter"><path codeLine="228" d="M2166.368,306.096 C2177.472,359.024 2190.9674,423.3661 2201.3354,472.8381" fill="none" id="ParameterSchema-to-Parameter" style="stroke:#181818;stroke-width:0.8;stroke-dasharray:5.6,5.6;"/><polygon fill="#181818" points="2202.32,477.536,2203.9751,469.8327,2201.4995,473.6211,2197.7112,471.1455,2202.32,477.536" style="stroke:#181818;stroke-width:0.8;"/><text fill="#000000" font-family="sans-serif" font-size="10.4" lengthAdjust="spacing" textLength="27.173" x="2186.784" y="401.5907">builds</text></g><!--link ConsoleViewer to Event--><g class="link" data-entity-1="ConsoleViewer" data-entity-2="Event" data-source-line="230" data-uid="lnk62" id="link_ConsoleViewer_Event"><path codeLine="230" d="M2595.688,276.056 C2590.408,313.216 2579.328,364.872 2556.384,404.768 C2532.816,445.744 2497.1022,479.4421 2466.0782,504.3621" fill="none" id="ConsoleViewer-to-Event" style="stroke:#181818;stroke-width:0.8;stroke-dasharray:5.6,5.6;"/><polygon fill="#181818" points="2462.336,507.368,2469.9533,505.3539,2465.4545,504.863,2465.9454,500.3643,2462.336,507.368" style="stroke:#181818;stroke-width:0.8;"/><text fill="#000000" font-family="sans-serif" font-size="10.4" lengthAdjust="spacing" textLength="64.1672" x="2563.584" y="401.5907">emits/handles</text></g><!--link TkinterViewer to Event--><g class="link" data-entity-1="TkinterViewer" data-entity-2="Event" data-source-line="231" data-uid="lnk63" id="link_TkinterViewer_Event"><path codeLine="231" d="M2783.44,268.872 C2764.272,298.112 2735.816,337.152 2704.384,365.568 C2629.712,433.072 2529.6924,486.8604 2469.2524,516.2604" fill="none" id="TkinterViewer-to-Event" style="stroke:#181818;stroke-width:0.8;stroke-dasharray:5.6,5.6;"/><polygon fill="#181818" points="2464.936,518.36,2472.8104,518.0881,2468.533,516.6103,2470.0109,512.3329,2464.936,518.36" style="stroke:#181818;stroke-width:0.8;"/><text fill="#000000" font-family="sans-serif" font-size="10.4" lengthAdjust="spacing" textLength="64.1672" x="2669.984" y="401.5907">emits/handles</text></g><!--link Application to Event--><g class="link" data-entity-1="Application" data-entity-2="Event" data-source-line="232" data-uid="lnk64" id="link_Application_Event"><path codeLine="232" d="M2993.792,306.128 C2968.808,327.424 2940.28,349.128 2911.584,365.568 C2759.464,452.72 2561.2112,506.6626 2469.5792,528.6786" fill="none" id="Application-to-Event" style="stroke:#181818;stroke-width:0.8;stroke-dasharray:5.6,5.6;"/><polygon fill="#181818" points="2464.912,529.8,2472.6603,531.2294,2468.8013,528.8655,2471.1652,525.0065,2464.912,529.8" style="stroke:#181818;stroke-width:0.8;"/><text fill="#000000" font-family="sans-serif" font-size="10.4" lengthAdjust="spacing" textLength="36.4305" x="2861.984" y="401.5907">handles</text></g><!--SRC=[jLZRRkCs47tNLmZxKWLDtAAFmYA0QwjP0t4Is4wwG14GjCIrYL2NYfIJx3R_tg54oYH5U-CMwuV4uWo7SpapXp9_eaM5Qvo7ASESZuMewReHP9QMnP9-9U6lGL3Xz0blIFXXKjRaG_Wj2E63rrpKE1NTld1IvZakCYMKdv_30kSa3a7DMCi8JsjQ2LeMheYya1HEZk1aGLv478whQj9zFul3NKapG_cRFlyjHCStukBLtCS55ZHz2pT4e3Pm7d5IxsWAhYwxBx3fcdBnrvqK4q7gnzR0M-0BNEsn0lSuOadRLF4up6Xg2cgoWMD9ZPH6r2VmN6z2AODzuhKYmvJ8YBIQYam_zeOEXAOAa5E1o8uK8ch_nc4Y_vadgHnqeRTIAt3fcDgrWgzctR70Hi3A3YcQVAzkc5gknejL_pIRNYU6ABdh7_wOtSoMd_h7-xlfUBLNJHQBsyN-wVDiRtAPB1vcamID7yQpw_7lfdqbMIRNoMILJ7l1v7O-7zzCVLi-tVw9rBubcYStzuDD1wqbdvF9lIbG2qWfxDV74Fa29LTN_TBY_iPI6rPdIdc5HRebjP7SYn3ztP06AfKH-6AkysOj-tDDQe0P0wGO9TnYtg63Hm29TLao1pi7KQF60RI1WjUPKZAa_ScHF9OKf6vRTsWcKo551t7PW_lxqmXiCVoAJfnKq5qSz2UOCRnc9intc560UYdJrpRQWrvujEV3ZjGY0kscxqizf_oXBA66EVwX0Q6kU-rvMMa7kibZ2zyNxJCLMrJZOaEYd1RdOOvV85mdCaD_tL2MHMd3HPaZwVGvK0ECNBG_pjn_P3RtxbXvCwa3fL13X7Gb7C2z1My6-y4mr-JNcOS5HbCi4th2-5Tiund_JL7GOZDehIrCS4Q-CvWT1b67c0pYOJbtTrFqrAF-nvhO1qGAof7VH5llJKEZ7INFdZQs0BvFaPL2XoxKZ6c7J-nEDa-fvcNMCC97So8mWpPDxSBropxoLYr4CcyJvHZIIp7JY6zDpTNYeyF6lRBCb6t74aFMcsugKciccafe_Ofe5j7ifTK2NUje4tuGMCDW7LMq8gWflfGi0s15ez7epAj7sBfyzYdwssgYDtPvzDpyUgovcNReX6E6wzS1ulkOQP6HbtrMtkFE0bAP-NpAQ3Slul0BAx4OGl6A29rDxZFWtZEDcbfsUd_k8Fq-GumK6x4r_VYF1oIoRhuJODWoCZo0aqtUjP2Di_SUR24k_FWncfwNTRgbsLdRiAtIvQNb2StSmtnTLTM03LJ1uCf_yzJ7AVXT3UsT2czrKPuFuzPuEjmpHy1eq8NiHrmJ35xAPdMFSJGxUpx5xgREXIspYPzMn0CQ9ppxmYVHC8G1KEZcFL3mJz3nkco4GtjowVJ9sIPFRaKff118sJyKEvMgBZV0xz4GYGuMe6bRVuvE8TDZRzzt9Zgt_a_hQrDtdVidcp8hS3-pqmuqoKj67bfIFU6-SSBrWM-11bJM4C2ZyJ2ySh-_A4YkE4JkgoS05wb_fCjDbKa6azUDmStjft11M7izuu76wyT_BYw6h6H9BRG4keQjoCjyWPyFFHjCRWgEq9QzrQ2HzsyogS6EmKDpmK33xAd0xJ5RoUgQuxfsMmI1UO4kPURtO33kXLBYNldSbzjU9-XhwHZK3er6b-QbCmuRJhZbYTJGsh76Em-2mQsnr53g2SMFXD87EJTHfOiyttN4QybxtpYkQLqSlAg19jcsWDAolT9Qw9U6cGZsB-5IsB-91UuRxN6fhCNUKjoz6tA9LtCOIgtknwYu_I62_z9D41xO4-Ymdbj_hQNb_m80]--></g></svg>